<svg width="64" height="64" viewBox="0 0 64 64" fill="none" xmlns="http://www.w3.org/2000/svg">
<rect width="64" height="64" rx="32" fill="#F8FAFC"/>
<g clip-path="url(#clip0_95_753)">
<path d="M32.4373 53.963C32.7534 53.8536 32.9601 53.6226 37.337 48.9418C39.6835 46.4372 41.8112 44.1515 42.0786 43.8719C42.4555 43.4828 42.565 43.2518 42.6136 42.8141C42.6744 42.3035 42.6501 42.2305 42.2489 41.8293L41.8233 41.4038L40.5954 41.4038L39.3674 41.4038L39.3674 37.9874C39.3674 35.8719 39.3188 34.4858 39.2458 34.34C39.0999 34.0725 38.4191 34.0117 38.1759 34.2548C38.0665 34.3643 38.03 35.4463 38.03 38.3764C38.03 41.9144 38.0543 42.3643 38.2245 42.5102C38.3583 42.6196 38.9054 42.7047 39.8537 42.7412L41.2762 42.802L38.5893 45.6713C37.1182 47.2518 35.027 49.4767 33.9571 50.6317L32.0118 52.7229L31.416 52.0785C31.0756 51.726 30.4799 51.0816 30.0786 50.6439C29.6653 50.2062 28.6197 49.0877 27.7565 48.1515C26.0422 46.3035 24.9479 45.1363 23.5619 43.6895L22.6744 42.7412L24.0604 42.7412C26.1759 42.7412 25.9935 43.1424 25.9935 38.4737C25.9935 36.0178 25.9449 34.498 25.872 34.3399C25.7017 34.036 25.0452 34.0238 24.8264 34.3278C24.7048 34.4858 24.6683 35.3004 24.6562 37.9752L24.6562 41.4038L23.489 41.4038C21.872 41.4038 21.3735 41.732 21.3735 42.802C21.3735 43.3004 21.2276 43.1302 27.0878 49.4159C29.2641 51.7503 31.2093 53.7442 31.4282 53.8536C31.8172 54.0482 32.109 54.0846 32.4373 53.963Z" fill="#64748B"/>
<path d="M35.1607 40.4797C35.3309 40.3217 35.3552 39.8718 35.3552 37.4402C35.3552 35.7016 35.3066 34.4858 35.2336 34.3399C35.1485 34.1819 34.9783 34.1089 34.6865 34.1089C34.3947 34.1089 34.2245 34.1819 34.1394 34.3399C34.0665 34.4858 34.0178 35.7016 34.0178 37.4402C34.0178 40.5284 34.0422 40.6743 34.6865 40.6743C34.8446 40.6743 35.0634 40.5892 35.1607 40.4797Z" fill="#64748B"/>
<path d="M29.8112 40.4797C29.9814 40.3217 30.0057 39.8718 30.0057 37.4402C30.0057 35.7016 29.9571 34.4858 29.8842 34.3399C29.7991 34.1819 29.6288 34.1089 29.337 34.1089C29.0453 34.1089 28.875 34.1819 28.7899 34.3399C28.717 34.4858 28.6684 35.7016 28.6684 37.4402C28.6684 40.5284 28.6927 40.6743 29.337 40.6743C29.4951 40.6743 29.7139 40.5892 29.8112 40.4797Z" fill="#64748B"/>
<path d="M18.0182 14.1973C17.4225 14.404 16.924 14.9511 16.7538 15.559C16.5593 16.2277 16.5714 30.7323 16.7538 31.2916C16.9362 31.8144 17.4225 32.3615 17.921 32.5682C18.2492 32.7141 20.6444 32.7384 31.9878 32.7384C41.3739 32.7384 45.7751 32.7019 46.0061 32.6046C46.4924 32.4223 46.8936 32.0211 47.1489 31.4618C47.3556 30.9998 47.3799 30.5135 47.3799 23.4983C47.3799 18.4405 47.3313 15.863 47.2462 15.5347C47.076 14.9268 46.4681 14.3189 45.8602 14.1487C45.5197 14.0514 41.3374 14.015 31.9392 14.015C20.6809 14.0271 18.4316 14.0514 18.0182 14.1973ZM27.1368 16.0089L26.4073 16.6654L24.3647 16.7141C22.5046 16.7505 22.2979 16.7749 22.1398 16.9815C22.0426 17.1153 21.9696 17.3828 21.9696 17.5651C21.9696 18.2581 21.228 19.17 20.5593 19.3037C19.1976 19.5834 19.2948 19.2673 19.2948 23.3524C19.2948 27.1943 19.3313 27.3888 20 27.3888C20.5106 27.401 21.3009 27.8022 21.5927 28.2156C21.7386 28.4223 21.8967 28.8357 21.9574 29.1396C22.1277 30.0758 22.1033 30.0636 24.3891 30.0636L26.4073 30.0758L27.1125 30.7323L27.8176 31.401H23.1246C18.6018 31.401 18.4316 31.3888 18.2006 31.1578C17.9574 30.9147 17.9574 30.7566 17.9574 23.4375V15.9481L18.2614 15.6563L18.5532 15.3524H23.2097H27.8663L27.1368 16.0089ZM33.7994 15.7414C35.7568 16.3736 37.459 18.2217 38.2128 20.5317C38.541 21.5408 38.5653 21.7475 38.5653 23.4375C38.5532 25.091 38.5289 25.3584 38.2249 26.2338C37.7751 27.5712 37.1307 28.6411 36.1945 29.5773C34.9179 30.8539 33.2766 31.4983 31.6353 31.3645C28.7295 31.1335 26.4559 28.9451 25.6049 25.5651C25.228 24.0575 25.3131 21.9299 25.8237 20.4344C27.1246 16.629 30.4924 14.6472 33.7994 15.7414ZM45.7386 15.6563L46.0425 15.9481V23.4375C46.0425 30.7566 46.0425 30.9147 45.7994 31.1578C45.5684 31.3888 45.3982 31.401 40.8754 31.401H36.1824L36.8875 30.7323L37.5927 30.0758L39.6109 30.0636C41.8967 30.0636 41.8723 30.0758 42.0425 29.1396C42.1033 28.8357 42.2614 28.4223 42.4073 28.2156C42.6991 27.8022 43.4894 27.401 44 27.3888C44.6687 27.3888 44.7052 27.1943 44.7052 23.3524C44.7052 19.5712 44.7052 19.5591 44.0243 19.4253C43.8663 19.3888 43.5988 19.3402 43.4407 19.3037C42.772 19.17 42.0304 18.2581 42.0304 17.5651C42.0304 17.3828 41.9574 17.1153 41.8602 16.9815C41.7021 16.7749 41.4954 16.7505 39.6353 16.7141L37.5927 16.6654L36.8632 16.0089L36.1337 15.3524H40.7903H45.4468L45.7386 15.6563ZM25.3374 18.173C24.3769 20.3128 24.0365 21.6746 24.0365 23.4496C24.0365 24.9086 24.304 26.2095 24.8389 27.4496C25.0821 27.9846 25.3009 28.4952 25.3374 28.5682C25.386 28.6898 25.1429 28.7262 24.3526 28.7262H23.3191L23.0517 28.1183C22.7356 27.3767 21.7994 26.4891 21.1307 26.2825L20.6322 26.1366L20.6565 23.401L20.693 20.6654L21.1915 20.4952C22.1033 20.1913 22.845 19.3645 23.2219 18.2338C23.2827 18.0636 23.4529 18.0271 24.3526 18.0271C25.1429 18.0271 25.386 18.0636 25.3374 18.173ZM40.8997 18.5864C41.2036 19.4861 42.1277 20.325 43.1611 20.629C43.3435 20.6898 43.3678 20.9329 43.3678 23.4132V26.1366L42.8693 26.2825C42.2006 26.4891 41.2644 27.3767 40.9483 28.1183L40.6808 28.7262H39.6596C39.0881 28.7262 38.6261 28.7019 38.6261 28.6654C38.6261 28.629 38.7356 28.3858 38.8693 28.1183C39.5866 26.6958 39.9635 25.1396 39.9635 23.4739C39.9635 21.6746 39.6353 20.3493 38.6626 18.173C38.614 18.0515 38.8328 18.0271 39.6596 18.0514L40.7295 18.0879L40.8997 18.5864Z" fill="#64748B"/>
<path d="M31.8176 16.7748C31.5015 16.8843 31.3313 17.2004 31.3313 17.6745C31.3313 18.1001 31.3069 18.1244 30.8814 18.2095C29.2401 18.5013 28.0486 19.7171 28.0486 21.0666C28.0486 21.8448 28.3647 22.4891 29.0334 23.0606C29.544 23.4983 30.6382 23.9846 31.0881 23.9846C31.3191 23.9846 31.3313 24.0818 31.3313 25.6259C31.3313 27.4739 31.3434 27.4618 30.4194 27.0362C29.7993 26.7566 29.544 26.4527 29.3495 25.8083C29.1671 25.1639 28.9118 24.9815 28.4498 25.1517C28.1337 25.2612 28.1094 25.3098 28.1094 25.942C28.1094 26.4891 28.1823 26.7201 28.462 27.1335C28.9118 27.7779 29.6656 28.2764 30.6018 28.5317C31.3313 28.7384 31.3313 28.7384 31.3313 29.2004C31.3313 29.4922 31.4164 29.7353 31.5501 29.8569C32.0607 30.3189 32.6686 29.942 32.6686 29.1761C32.6686 28.7384 32.6808 28.7384 33.3981 28.5317C34.3343 28.2764 35.0881 27.7779 35.5379 27.1214C35.8419 26.6837 35.8905 26.5135 35.8905 25.7475C35.8905 24.9937 35.8419 24.8113 35.5501 24.3615C35.1367 23.7414 34.2978 23.1821 33.3738 22.9268L32.6686 22.7323V21.1031C32.6686 19.8873 32.7051 19.4861 32.8267 19.4861C32.8996 19.4861 33.2522 19.6198 33.5805 19.7779C34.2249 20.0697 34.5167 20.3979 34.6626 21.0058C34.7841 21.5043 34.9544 21.6745 35.3313 21.6745C35.7811 21.6745 35.9513 21.4679 35.9513 20.9207C35.9513 19.7171 34.6747 18.4891 33.1306 18.2095C32.693 18.1244 32.6686 18.1001 32.6686 17.6502C32.6686 17.3341 32.5835 17.091 32.4255 16.9329C32.1702 16.6776 32.1215 16.6654 31.8176 16.7748ZM31.3313 21.0666C31.3313 22.246 31.2948 22.6472 31.1854 22.6472C30.8693 22.6472 29.775 22.0514 29.5805 21.784C29.082 21.0666 29.4711 20.1913 30.5045 19.7293C31.3556 19.3402 31.3313 19.3159 31.3313 21.0666ZM34.1398 24.8356C34.5167 25.1882 34.6139 25.3706 34.6139 25.711C34.6139 26.2581 34.237 26.7445 33.5927 27.0362C32.6565 27.4618 32.6686 27.4739 32.6686 25.6989V24.1305L33.1671 24.2642C33.4589 24.3372 33.8723 24.5803 34.1398 24.8356Z" fill="#64748B"/>
</g>
<defs>
<clipPath id="clip0_95_753">
<rect width="40" height="40" fill="white" transform="translate(12 14)"/>
</clipPath>
</defs>
</svg>
