<svg width="24" height="24" viewBox="0 0 24 24" fill="none" xmlns="http://www.w3.org/2000/svg">
<path fill-rule="evenodd" clip-rule="evenodd" d="M21.6 11.9999C21.6 17.3018 17.3019 21.5999 12 21.5999C6.69806 21.5999 2.39999 17.3018 2.39999 11.9999C2.39999 6.69797 6.69806 2.3999 12 2.3999C17.3019 2.3999 21.6 6.69797 21.6 11.9999ZM13.2 7.1999C13.2 7.86264 12.6627 8.3999 12 8.3999C11.3373 8.3999 10.8 7.86264 10.8 7.1999C10.8 6.53716 11.3373 5.9999 12 5.9999C12.6627 5.9999 13.2 6.53716 13.2 7.1999ZM10.8 10.7999C10.1373 10.7999 9.59999 11.3372 9.59999 11.9999C9.59999 12.6626 10.1373 13.1999 10.8 13.1999V16.7999C10.8 17.4626 11.3373 17.9999 12 17.9999H13.2C13.8627 17.9999 14.4 17.4626 14.4 16.7999C14.4 16.1372 13.8627 15.5999 13.2 15.5999V11.9999C13.2 11.3372 12.6627 10.7999 12 10.7999H10.8Z" fill="#4F46E5"/>
</svg>
