<svg width="64" height="64" viewBox="0 0 64 64" fill="none" xmlns="http://www.w3.org/2000/svg">
<rect width="64" height="64" rx="32" fill="#F7F8FD"/>
<g clip-path="url(#clip0_95_742)">
<path d="M31.5745 10.0851C31.2584 10.1945 31.0517 10.4255 26.6748 15.1064C24.3283 17.611 22.2006 19.8967 21.9331 20.1763C21.5562 20.5654 21.4468 20.7964 21.3982 21.2341C21.3374 21.7447 21.3617 21.8176 21.7629 22.2189L22.1885 22.6444H23.4164H24.6444V26.0608C24.6444 28.1763 24.693 29.5623 24.766 29.7082C24.9119 29.9757 25.5927 30.0365 25.8359 29.7933C25.9453 29.6839 25.9818 28.6018 25.9818 25.6717C25.9818 22.1338 25.9575 21.6839 25.7872 21.538C25.6535 21.4286 25.1064 21.3435 24.1581 21.307L22.7356 21.2462L25.4225 18.3769C26.8936 16.7964 28.9848 14.5714 30.0547 13.4164L32 11.3252L32.5958 11.9696C32.9362 12.3222 33.5319 12.9666 33.9331 13.4043C34.3465 13.842 35.3921 14.9605 36.2553 15.8967C37.9696 17.7447 39.0638 18.9119 40.4499 20.3587L41.3374 21.307H39.9514C37.8359 21.307 38.0182 20.9058 38.0182 25.5745C38.0182 28.0304 38.0669 29.5502 38.1398 29.7082C38.31 30.0122 38.9666 30.0243 39.1854 29.7204C39.307 29.5623 39.3435 28.7477 39.3556 26.073V22.6444H40.5228C42.1398 22.6444 42.6383 22.3161 42.6383 21.2462C42.6383 20.7477 42.7842 20.9179 36.924 14.6322C34.7477 12.2979 32.8024 10.304 32.5836 10.1945C32.1945 10 31.9027 9.96354 31.5745 10.0851Z" fill="#64748B"/>
<path d="M28.8511 23.5684C28.6809 23.7265 28.6566 24.1763 28.6566 26.6079C28.6566 28.3465 28.7052 29.5623 28.7781 29.7082C28.8632 29.8663 29.0335 29.9392 29.3252 29.9392C29.617 29.9392 29.7873 29.8663 29.8724 29.7082C29.9453 29.5623 29.9939 28.3465 29.9939 26.6079C29.9939 23.5198 29.9696 23.3739 29.3252 23.3739C29.1672 23.3739 28.9483 23.459 28.8511 23.5684Z" fill="#64748B"/>
<path d="M34.2006 23.5684C34.0304 23.7265 34.006 24.1763 34.006 26.6079C34.006 28.3465 34.0547 29.5623 34.1276 29.7082C34.2127 29.8663 34.3829 29.9392 34.6747 29.9392C34.9665 29.9392 35.1367 29.8663 35.2218 29.7082C35.2948 29.5623 35.3434 28.3465 35.3434 26.6079C35.3434 23.5198 35.3191 23.3739 34.6747 23.3739C34.5167 23.3739 34.2978 23.459 34.2006 23.5684Z" fill="#64748B"/>
<path d="M18.0182 31.459C17.4225 31.6657 16.924 32.2128 16.7538 32.8207C16.5593 33.4894 16.5714 47.9939 16.7538 48.5532C16.9362 49.076 17.4225 49.6231 17.921 49.8298C18.2492 49.9757 20.6444 50 31.9878 50C41.3739 50 45.7751 49.9635 46.0061 49.8663C46.4924 49.6839 46.8936 49.2827 47.1489 48.7234C47.3556 48.2614 47.3799 47.7751 47.3799 40.7599C47.3799 35.7021 47.3313 33.1246 47.2462 32.7964C47.076 32.1884 46.4681 31.5805 45.8602 31.4103C45.5198 31.3131 41.3374 31.2766 31.9392 31.2766C20.6809 31.2888 18.4316 31.3131 18.0182 31.459ZM27.1368 33.2705L26.4073 33.927L24.3647 33.9757C22.5046 34.0122 22.2979 34.0365 22.1398 34.2432C22.0426 34.3769 21.9696 34.6444 21.9696 34.8267C21.9696 35.5198 21.228 36.4316 20.5593 36.5653C19.1976 36.845 19.2948 36.5289 19.2948 40.614C19.2948 44.4559 19.3313 44.6505 20 44.6505C20.5106 44.6626 21.3009 45.0638 21.5927 45.4772C21.7386 45.6839 21.8967 46.0973 21.9574 46.4012C22.1277 47.3374 22.1033 47.3252 24.3891 47.3252L26.4073 47.3374L27.1125 47.9939L27.8176 48.6626H23.1246C18.6018 48.6626 18.4316 48.6505 18.2006 48.4195C17.9574 48.1763 17.9574 48.0182 17.9574 40.6991V33.2097L18.2614 32.9179L18.5532 32.614H23.2097H27.8663L27.1368 33.2705ZM33.7994 33.003C35.7568 33.6353 37.459 35.4833 38.2128 37.7933C38.541 38.8024 38.5654 39.0091 38.5654 40.6991C38.5532 42.3526 38.5289 42.6201 38.2249 43.4954C37.7751 44.8328 37.1307 45.9027 36.1945 46.8389C34.9179 48.1155 33.2766 48.7599 31.6353 48.6261C28.7295 48.3951 26.4559 46.2067 25.6049 42.8267C25.228 41.3191 25.3131 39.1915 25.8237 37.696C27.1246 33.8906 30.4924 31.9088 33.7994 33.003ZM45.7386 32.9179L46.0426 33.2097V40.6991C46.0426 48.0182 46.0426 48.1763 45.7994 48.4195C45.5684 48.6505 45.3982 48.6626 40.8754 48.6626H36.1824L36.8875 47.9939L37.5927 47.3374L39.6109 47.3252C41.8967 47.3252 41.8723 47.3374 42.0426 46.4012C42.1033 46.0973 42.2614 45.6839 42.4073 45.4772C42.6991 45.0638 43.4894 44.6626 44 44.6505C44.6687 44.6505 44.7052 44.4559 44.7052 40.614C44.7052 36.8328 44.7052 36.8207 44.0243 36.6869C43.8663 36.6505 43.5988 36.6018 43.4407 36.5653C42.772 36.4316 42.0304 35.5198 42.0304 34.8267C42.0304 34.6444 41.9574 34.3769 41.8602 34.2432C41.7021 34.0365 41.4954 34.0122 39.6353 33.9757L37.5927 33.927L36.8632 33.2705L36.1337 32.614H40.7903H45.4468L45.7386 32.9179ZM25.3374 35.4346C24.3769 37.5745 24.0365 38.9362 24.0365 40.7112C24.0365 42.1702 24.304 43.4711 24.8389 44.7112C25.0821 45.2462 25.3009 45.7568 25.3374 45.8298C25.386 45.9514 25.1429 45.9878 24.3526 45.9878H23.3192L23.0517 45.3799C22.7356 44.6383 21.7994 43.7508 21.1307 43.5441L20.6322 43.3982L20.6565 40.6626L20.693 37.927L21.1915 37.7568C22.1033 37.4529 22.845 36.6261 23.2219 35.4954C23.2827 35.3252 23.4529 35.2888 24.3526 35.2888C25.1429 35.2888 25.386 35.3252 25.3374 35.4346ZM40.8997 35.848C41.2036 36.7477 42.1277 37.5866 43.1611 37.8906C43.3435 37.9514 43.3678 38.1945 43.3678 40.6748V43.3982L42.8693 43.5441C42.2006 43.7508 41.2644 44.6383 40.9483 45.3799L40.6809 45.9878H39.6596C39.0881 45.9878 38.6261 45.9635 38.6261 45.9271C38.6261 45.8906 38.7356 45.6474 38.8693 45.3799C39.5866 43.9574 39.9635 42.4012 39.9635 40.7356C39.9635 38.9362 39.6353 37.6109 38.6626 35.4346C38.614 35.3131 38.8328 35.2888 39.6596 35.3131L40.7295 35.3495L40.8997 35.848Z" fill="#64748B"/>
<path d="M31.8176 34.0365C31.5015 34.1459 31.3313 34.462 31.3313 34.9362C31.3313 35.3617 31.307 35.386 30.8815 35.4711C29.2401 35.7629 28.0486 36.9787 28.0486 38.3283C28.0486 39.1064 28.3648 39.7508 29.0334 40.3222C29.5441 40.7599 30.6383 41.2462 31.0882 41.2462C31.3192 41.2462 31.3313 41.3435 31.3313 42.8875C31.3313 44.7356 31.3435 44.7234 30.4195 44.2979C29.7994 44.0182 29.5441 43.7143 29.3496 43.0699C29.1672 42.4255 28.9119 42.2432 28.4499 42.4134C28.1338 42.5228 28.1094 42.5714 28.1094 43.2037C28.1094 43.7508 28.1824 43.9818 28.462 44.3951C28.9119 45.0395 29.6657 45.538 30.6018 45.7933C31.3313 46 31.3313 46 31.3313 46.462C31.3313 46.7538 31.4164 46.997 31.5502 47.1185C32.0608 47.5806 32.6687 47.2037 32.6687 46.4377C32.6687 46 32.6809 46 33.3982 45.7933C34.3344 45.538 35.0882 45.0395 35.538 44.383C35.842 43.9453 35.8906 43.7751 35.8906 43.0091C35.8906 42.2553 35.842 42.073 35.5502 41.6231C35.1368 41.003 34.2979 40.4438 33.3739 40.1885L32.6687 39.9939V38.3647C32.6687 37.1489 32.7052 36.7477 32.8268 36.7477C32.8997 36.7477 33.2523 36.8815 33.5806 37.0395C34.2249 37.3313 34.5167 37.6596 34.6626 38.2675C34.7842 38.766 34.9544 38.9362 35.3313 38.9362C35.7812 38.9362 35.9514 38.7295 35.9514 38.1824C35.9514 36.9787 34.6748 35.7508 33.1307 35.4711C32.693 35.386 32.6687 35.3617 32.6687 34.9119C32.6687 34.5957 32.5836 34.3526 32.4255 34.1945C32.1702 33.9392 32.1216 33.9271 31.8176 34.0365ZM31.3313 38.3283C31.3313 39.5076 31.2948 39.9088 31.1854 39.9088C30.8693 39.9088 29.7751 39.3131 29.5806 39.0456C29.0821 38.3283 29.4711 37.4529 30.5046 36.9909C31.3556 36.6018 31.3313 36.5775 31.3313 38.3283ZM34.1398 42.0973C34.5167 42.4499 34.614 42.6322 34.614 42.9726C34.614 43.5198 34.2371 44.0061 33.5927 44.2979C32.6565 44.7234 32.6687 44.7356 32.6687 42.9605V41.3921L33.1672 41.5258C33.459 41.5988 33.8724 41.8419 34.1398 42.0973Z" fill="#64748B"/>
</g>
<defs>
<clipPath id="clip0_95_742">
<rect width="40" height="40" fill="white" transform="translate(12 10)"/>
</clipPath>
</defs>
</svg>
