<svg width="49" height="48" viewBox="0 0 49 48" fill="none" xmlns="http://www.w3.org/2000/svg">
<rect x="0.333374" width="48" height="48" rx="4" fill="#ECA6BF"/>
<path d="M41.1148 16.3925C40.9738 16.0882 40.625 15.7765 40.3207 15.6874C40.1723 15.6429 38.1758 15.6132 35.2516 15.6132L30.4348 15.6132L31.0582 14.9675C32.0898 13.8914 32.409 12.9414 32.1566 11.739C31.9117 10.5886 31.1621 9.76479 29.9152 9.26753C28.468 8.69604 27.6145 8.14682 26.3824 6.96674C25.4547 6.07612 25.3805 6.05385 24.757 6.4101C24.2969 6.67729 23.8961 7.19682 23.7699 7.69409C23.718 7.88706 23.6586 8.04292 23.6363 8.04292C23.6141 8.03549 23.243 7.75346 22.8125 7.41206C22.0406 6.78862 21.8477 6.69956 21.5137 6.82573C21.3652 6.8851 21.0906 7.4269 20.9273 7.96128C20.7789 8.46596 20.7715 9.57182 20.9125 10.1062C21.009 10.4699 21.009 10.4921 20.8977 10.4624C20.8309 10.4402 20.252 10.2769 19.6063 10.0914C18.968 9.90581 18.3297 9.74995 18.1887 9.74995C17.8398 9.74995 17.6988 9.93549 17.5949 10.5218C17.4168 11.5535 17.7953 12.6074 18.6191 13.3718C19.1758 13.8988 20.0145 14.5445 20.8828 15.1234L21.5063 15.539L17.0012 15.539C12.0582 15.539 12.266 15.5242 11.8801 15.9843C11.5832 16.3331 11.5313 16.6523 11.5313 18.2257L11.5313 19.6804L11.3086 19.9031C11.0117 20.2074 11.0117 20.5117 11.3086 20.7566L11.5313 20.9496L11.5313 23.7624L11.5313 26.5679L11.2715 26.6941C10.8188 26.9093 10.8336 27.4956 11.2863 27.7109L11.5313 27.8222L11.5313 29.6331C11.5313 31.3179 11.5387 31.4589 11.6871 31.7113C11.7688 31.8597 11.9543 32.0675 12.1027 32.164L12.3773 32.3496L16.8973 32.3867L21.4246 32.4238L20.7641 32.8617C19.7918 33.5074 18.7231 34.3386 18.3297 34.7617C17.8324 35.2886 17.5281 35.9788 17.4836 36.6617C17.4168 37.7081 17.6023 38.1757 18.0848 38.1757C18.2184 38.1757 18.8789 38.0199 19.5617 37.8269C20.2445 37.6414 20.8234 37.4929 20.8383 37.5152C20.8606 37.53 20.8234 37.7453 20.7641 37.9902C20.5637 38.8734 20.6824 39.9273 21.0684 40.7066C21.2688 41.0925 21.5063 41.2558 21.7957 41.1742C21.8848 41.1519 22.3078 40.855 22.7383 40.521L23.5176 39.905L23.6438 40.3281C23.8664 41.0406 24.6977 41.8124 25.2469 41.8124C25.3508 41.8124 25.707 41.5304 26.2488 41.0257C27.466 39.8753 28.6238 39.1406 29.841 38.7398C30.3457 38.5691 31.0359 38.1164 31.3328 37.7601C31.9563 37.0105 32.2457 36.016 32.0973 35.1031C31.9785 34.3535 31.6668 33.782 31.0137 33.0695L30.4496 32.4609L35.4148 32.446L40.3801 32.4238L40.6473 32.216C41.2262 31.7781 41.1816 32.4164 41.1965 24.0742C41.2113 17.9363 41.1965 16.5781 41.1148 16.3925ZM38.4727 31.2585C37.634 31.2734 31.4961 31.2585 24.8387 31.2289L12.7188 31.1843L12.7188 29.5144L12.7188 27.8519L12.9414 27.6589C13.1047 27.5253 13.1641 27.4066 13.1641 27.2359C13.1641 26.9687 12.9859 26.6718 12.8227 26.6718C12.7336 26.6718 12.7188 26.2562 12.7188 23.8218L12.7188 20.9718L12.9414 20.8828C13.2012 20.7714 13.3125 20.6081 13.3125 20.3187C13.3125 20.0812 13.0527 19.7695 12.8523 19.7695C12.7262 19.7695 12.7188 19.6878 12.7336 18.2703L12.7559 16.7636L14.9453 16.7414C16.1477 16.7265 22.2856 16.7414 28.5867 16.771L40.0313 16.8156L40.0164 24.0296L39.9941 31.2363L38.4727 31.2585ZM30.932 13.0898C30.8281 13.446 30.702 13.6093 29.7965 14.5222L28.7797 15.5539L26.3676 15.5464L23.9629 15.5316L23.1836 15.1234C21.7066 14.3367 19.6879 12.8968 19.1906 12.2585C18.9754 11.9839 18.6711 11.1972 18.7453 11.1156C18.775 11.0859 20.675 11.6277 23.1688 12.3773C24.6012 12.8078 25.6625 13.0304 25.8852 12.9414C26.1301 12.8523 26.2563 12.6593 26.2563 12.3847C26.2563 11.9394 26.1969 11.9097 24.7793 11.598C24.3711 11.5164 23.7328 11.3457 23.3543 11.2269C22.7086 11.0191 22.6641 10.9894 22.4563 10.6554C22.1297 10.1359 21.9961 9.67573 21.9961 9.01518C21.9961 8.69604 22.0184 8.42143 22.0406 8.39174C22.0703 8.36948 22.7457 8.87417 23.5473 9.51987C25.4324 11.0339 26.0039 11.3753 27.132 11.6425C27.8074 11.7984 28.0598 11.7835 28.2676 11.5683C28.7055 11.1378 28.4012 10.7222 27.4883 10.4996C26.7461 10.3214 25.9445 9.94292 25.5141 9.57182C25.1133 9.23042 24.7867 8.52534 24.8609 8.14682C24.8906 7.99839 24.9871 7.79057 25.0762 7.68667L25.2469 7.48628L25.9445 8.15424C26.9613 9.14135 28.1043 9.86128 29.4922 10.3808C30.7242 10.8484 31.2883 11.9023 30.932 13.0898ZM30.7465 36.4613C30.5164 36.9957 30.0785 37.3667 29.3438 37.6488C27.8668 38.2203 26.7758 38.9031 25.7441 39.8976C25.4102 40.2167 25.1133 40.4765 25.0836 40.4765C25.0613 40.4765 24.9723 40.3652 24.8906 40.239C24.5566 39.6898 24.8238 38.8363 25.4695 38.3613C25.9891 37.9828 26.6793 37.671 27.2879 37.5374C27.5773 37.4706 27.9039 37.3816 28.0078 37.3296C28.275 37.2035 28.4012 36.9066 28.3047 36.6468C28.134 36.2089 27.8594 36.157 26.9242 36.3945C25.8852 36.6542 25.1504 37.0847 23.4879 38.3984C22.3301 39.3261 21.959 39.5785 21.907 39.5042C21.7734 39.3113 21.8922 38.2203 22.0852 37.7898C22.434 37.0328 22.5305 36.966 23.7551 36.632C24.3637 36.4613 24.9871 36.3054 25.1504 36.2831C25.8481 36.1644 26.0113 36.0976 26.1078 35.8675C26.3156 35.3703 26.0484 35.014 25.4918 35.0363C25.091 35.0511 23.6066 35.4296 20.957 36.1941C18.441 36.9214 18.6563 36.8769 18.6563 36.6691C18.6563 36.5726 18.7602 36.2906 18.8863 36.0382C19.0719 35.6597 19.2277 35.489 19.7918 35.0363C20.9793 34.0937 22.2707 33.2476 23.4434 32.6687L23.9629 32.4089L26.3379 32.4386L28.7129 32.4757L29.5887 33.3367C30.0711 33.8191 30.5387 34.3238 30.6277 34.4648C30.9988 35.066 31.0434 35.7785 30.7465 36.4613Z" fill="#ED1865"/>
<path d="M38.3316 20.9867C38.2277 20.7566 37.9605 20.5859 37.6933 20.5859C36.9957 20.5785 36.2461 19.814 36.2461 19.1015C36.2461 18.9456 36.1793 18.7972 36.0308 18.6488L35.8156 18.4335L28.4383 18.4187C15.9547 18.3816 16.9047 18.3742 16.7265 18.5449C16.6375 18.6414 16.5484 18.8714 16.5039 19.1386C16.4594 19.391 16.3554 19.6878 16.2367 19.8511C16.014 20.1777 15.4054 20.5117 15.0492 20.5117C14.9008 20.5117 14.7226 20.5785 14.5965 20.6898L14.3886 20.8679L14.3664 23.9257L14.3441 26.9761L14.5668 27.1914C14.7226 27.3472 14.8562 27.414 15.0344 27.414C15.7691 27.4214 16.5039 28.1859 16.5039 28.9503C16.5039 29.0394 16.5261 29.1656 16.5484 29.2324C16.6746 29.5515 16.489 29.5441 26.4344 29.5738L35.8898 29.6035L36.0234 29.4402C36.0976 29.3437 36.1793 29.1062 36.209 28.9132C36.3129 28.1414 36.8472 27.5996 37.582 27.5105C37.8566 27.4808 38.0347 27.414 38.1535 27.2953C38.3168 27.132 38.3242 27.0652 38.3242 26.13C38.3242 25.5808 38.339 24.2374 38.3613 23.139C38.3836 21.9515 38.3761 21.0757 38.3316 20.9867ZM37.1367 25.5585L37.1367 26.3453L36.6617 26.5456C35.9418 26.8648 35.3703 27.5105 35.1031 28.3269C35.0586 28.4753 34.7023 28.4828 31.7113 28.4011L29.8855 28.3566L30.3011 27.941C32.4832 25.7589 32.4758 22.2113 30.2937 20.0515L29.8558 19.621L32.498 19.621C34.6504 19.621 35.1328 19.6359 35.1328 19.7175C35.1328 19.955 35.6078 20.7417 35.9195 21.0312C36.1051 21.2019 36.4761 21.4394 36.7433 21.5656L37.2332 21.7882L37.1886 23.28C37.159 24.1039 37.1367 25.1281 37.1367 25.5585ZM30.6054 25.0761C29.9152 27.7628 26.9019 29.1581 24.4082 27.9261C23.3023 27.3843 22.4711 26.3824 22.1 25.1503C21.8996 24.4824 21.9144 23.3691 22.1371 22.7011C22.6195 21.2687 23.6215 20.2445 25.0019 19.7917C25.8406 19.5171 26.9094 19.5171 27.6961 19.7917C28.4679 20.0589 28.9875 20.3929 29.5441 20.9867C30.0636 21.5285 30.4793 22.2929 30.65 22.9906C30.791 23.5769 30.7761 24.423 30.6054 25.0761ZM21.8773 20.6972C20.6898 22.3671 20.4746 24.4824 21.2984 26.2859C21.6101 26.9687 22.1074 27.6738 22.5601 28.0746L22.909 28.3789L20.2668 28.3789L17.632 28.3789L17.5133 28.03C17.2609 27.3027 16.6226 26.6496 15.8953 26.3898L15.539 26.2636L15.539 23.948C15.539 22.1371 15.5613 21.6249 15.6355 21.6249C15.8508 21.6249 16.5261 21.239 16.8601 20.9273C17.1867 20.6156 17.4168 20.2593 17.6097 19.7546L17.6914 19.5468L18.9383 19.5468C19.6285 19.5468 20.7937 19.5691 21.5359 19.5988L22.8793 19.6433L22.5453 19.9402C22.3672 20.096 22.0629 20.4449 21.8773 20.6972Z" fill="#ED1865"/>
<path d="M34.6949 23.5473C34.5316 23.3914 34.4054 23.332 34.2051 23.332C34.0047 23.332 33.8785 23.3914 33.7152 23.5473C33.4109 23.8516 33.4183 24.2227 33.7226 24.5344C33.9304 24.7348 33.9898 24.757 34.2644 24.7199C34.8879 24.6383 35.1254 23.9852 34.6949 23.5473Z" fill="#ED1865"/>
<path d="M28.0449 22.4859C27.9262 22.1519 27.6293 21.8179 27.3324 21.6992C27.1988 21.6398 27.1172 21.5507 27.1172 21.4617C27.1172 21.2242 26.9836 21.0534 26.7461 20.9644C26.375 20.8382 26.0633 21.0163 25.9668 21.4097C25.9371 21.521 25.8109 21.6546 25.6551 21.7437C25.5066 21.8179 25.2914 22.0331 25.1726 22.2113C24.8015 22.805 24.9277 23.7327 25.4473 24.1335C25.5586 24.2226 25.9223 24.4304 26.2711 24.6085C26.9613 24.9574 27.0875 25.1355 26.8203 25.3507C26.7312 25.4249 26.5902 25.4843 26.516 25.4843C26.3379 25.4843 26.0781 25.2245 26.0781 25.0464C26.0781 24.8386 25.848 24.6011 25.5883 24.5492C25.4101 24.512 25.3137 24.5492 25.143 24.6902C24.9648 24.846 24.9277 24.9277 24.9351 25.2097C24.9426 25.655 25.2543 26.1745 25.6328 26.3898C25.7961 26.4863 25.9297 26.6124 25.9297 26.6792C25.9297 26.746 25.9965 26.887 26.0855 26.9984C26.2043 27.1468 26.3008 27.1913 26.5234 27.1913C26.7461 27.1913 26.8426 27.1468 26.9613 26.9984C27.0504 26.887 27.1172 26.746 27.1246 26.6792C27.1246 26.6124 27.2805 26.464 27.466 26.3378C28.223 25.848 28.364 24.8312 27.7629 24.1706C27.6293 24.0296 27.2211 23.755 26.8574 23.562C26.323 23.2949 26.182 23.1835 26.1672 23.0425C26.1152 22.7011 26.6051 22.5304 26.8426 22.7976C26.9168 22.8718 26.9687 23.0054 26.9687 23.087C26.9687 23.1761 27.0726 23.332 27.2062 23.4433C27.4808 23.6734 27.7332 23.6511 27.993 23.3617C28.1785 23.1464 28.1933 22.9015 28.0449 22.4859Z" fill="#ED1865"/>
<path d="M19.1461 23.6363C18.916 23.2207 18.389 23.1391 18.0551 23.473C17.7582 23.7773 17.7582 24.1484 18.0551 24.4527C18.4113 24.8016 18.916 24.7348 19.1386 24.2969C19.2722 24.0371 19.2797 23.8738 19.1461 23.6363Z" fill="#ED1865"/>
<path d="M16.9566 13.0824C16.823 12.9192 16.7488 12.9043 16.0289 12.8821C15.2793 12.8524 15.2422 12.8598 15.0566 13.0453C14.8117 13.2903 14.8117 13.6317 15.0566 13.8692C15.2199 14.0399 15.2867 14.0547 15.9844 14.0547C16.682 14.0547 16.7488 14.0399 16.9121 13.8692C17.1347 13.6539 17.1496 13.3199 16.9566 13.0824Z" fill="#ED1865"/>
<path d="M16.8379 34.0566C16.6746 33.8859 16.6078 33.8711 15.8879 33.8711C15.1828 33.8711 15.1086 33.8859 14.9601 34.0418C14.6855 34.3312 14.7523 34.7691 15.1012 34.9473C15.3535 35.0809 16.4371 35.0957 16.6746 34.9695C17.0605 34.7691 17.1348 34.3535 16.8379 34.0566Z" fill="#ED1865"/>
<path d="M13.7652 13.0824L13.55 12.8672L12.4961 12.8672C11.4867 12.8672 11.4422 12.8746 11.2715 13.0527C11.0711 13.2457 11.0414 13.4312 11.1676 13.7059C11.3012 13.9953 11.5387 14.0547 12.5777 14.0547L13.55 14.0547L13.7652 13.8395C14.0398 13.5648 14.0398 13.357 13.7652 13.0824Z" fill="#ED1865"/>
<path d="M13.7949 34.1828C13.743 34.0641 13.6465 33.9453 13.5723 33.9156C13.5055 33.8934 12.9711 33.8711 12.3848 33.8711C11.3234 33.8711 11.316 33.8711 11.1676 34.0641C10.9598 34.3238 10.9746 34.5613 11.1899 34.8137L11.368 35.0215L12.4442 35.0215C13.3793 35.0215 13.5426 35.0066 13.6688 34.8879C13.8617 34.7098 13.9063 34.4574 13.7949 34.1828Z" fill="#ED1865"/>
<path d="M10.0246 19.9475C9.85387 19.7546 9.82419 19.7472 8.88903 19.71C8.31012 19.6952 7.84997 19.71 7.73122 19.762C7.44177 19.8733 7.27848 20.1554 7.33786 20.4374C7.4195 20.8233 7.5902 20.8753 8.7777 20.8901L9.85387 20.905L10.0246 20.7046C10.2398 20.4522 10.2398 20.1999 10.0246 19.9475Z" fill="#ED1865"/>
<path d="M9.9578 26.9242C9.83163 26.657 9.57186 26.5977 8.5328 26.5977C7.65702 26.5977 7.53085 26.6125 7.39725 26.7461C7.30819 26.8203 7.21913 26.9613 7.18944 27.043C7.11522 27.2656 7.2785 27.5996 7.49374 27.7035C7.68671 27.7926 9.49764 27.8223 9.71288 27.7406C9.83905 27.6887 10.0469 27.3324 10.0394 27.1766C10.0394 27.1246 10.0023 27.0059 9.9578 26.9242Z" fill="#ED1865"/>
</svg>
