<svg width="1032" height="322" viewBox="0 0 1032 322" fill="none" xmlns="http://www.w3.org/2000/svg">
<path d="M15.5808 14.0909V3.18182H16.2797V14.0909H15.5808ZM17.9331 6.45455C17.8819 6.02273 17.6745 5.6875 17.3109 5.44886C16.9473 5.21023 16.5012 5.09091 15.9728 5.09091C15.5865 5.09091 15.2484 5.15341 14.9586 5.27841C14.6717 5.40341 14.4473 5.57528 14.2853 5.79403C14.1262 6.01278 14.0467 6.26136 14.0467 6.53977C14.0467 6.77273 14.1021 6.97301 14.2129 7.14062C14.3265 7.3054 14.4714 7.44318 14.6475 7.55398C14.8237 7.66193 15.0083 7.75142 15.2015 7.82244C15.3947 7.89062 15.5723 7.94602 15.7342 7.98864L16.6206 8.22727C16.8478 8.28693 17.1007 8.36932 17.3791 8.47443C17.6603 8.57955 17.9288 8.72301 18.1845 8.90483C18.443 9.08381 18.6561 9.31392 18.8237 9.59517C18.9913 9.87642 19.0751 10.2216 19.0751 10.6307C19.0751 11.1023 18.9515 11.5284 18.7044 11.9091C18.46 12.2898 18.1021 12.5923 17.6305 12.8168C17.1618 13.0412 16.5922 13.1534 15.9217 13.1534C15.2967 13.1534 14.7555 13.0526 14.2981 12.8509C13.8436 12.6491 13.4856 12.3679 13.2243 12.0071C12.9657 11.6463 12.8194 11.2273 12.7853 10.75H13.8762C13.9047 11.0795 14.0154 11.3523 14.2086 11.5682C14.4047 11.7812 14.6518 11.9403 14.9501 12.0455C15.2512 12.1477 15.5751 12.1989 15.9217 12.1989C16.3251 12.1989 16.6873 12.1335 17.0083 12.0028C17.3294 11.8693 17.5836 11.6847 17.7711 11.4489C17.9586 11.2102 18.0524 10.9318 18.0524 10.6136C18.0524 10.3239 17.9714 10.0881 17.8095 9.90625C17.6475 9.72443 17.4345 9.5767 17.1703 9.46307C16.9061 9.34943 16.6206 9.25 16.3137 9.16477L15.2399 8.85795C14.5581 8.66193 14.0183 8.3821 13.6206 8.01847C13.2228 7.65483 13.024 7.17898 13.024 6.59091C13.024 6.10227 13.1561 5.67614 13.4203 5.3125C13.6873 4.94602 14.0453 4.66193 14.4941 4.46023C14.9458 4.25568 15.4501 4.15341 16.0069 4.15341C16.5694 4.15341 17.0694 4.25426 17.5069 4.45597C17.9444 4.65483 18.291 4.92756 18.5467 5.27415C18.8052 5.62074 18.9416 6.0142 18.9558 6.45455H17.9331ZM23.6081 13.1193C23.0456 13.1193 22.5442 13.0227 22.1039 12.8295C21.6664 12.6364 21.3184 12.3679 21.0598 12.0241C20.8042 11.6776 20.665 11.2756 20.6422 10.8182H21.7161C21.7388 11.0994 21.8354 11.3423 22.0059 11.5469C22.1763 11.7486 22.3993 11.9048 22.6749 12.0156C22.9505 12.1264 23.2559 12.1818 23.5911 12.1818C23.9661 12.1818 24.2985 12.1165 24.5882 11.9858C24.878 11.8551 25.1053 11.6733 25.2701 11.4403C25.4348 11.2074 25.5172 10.9375 25.5172 10.6307C25.5172 10.3097 25.4377 10.027 25.2786 9.78267C25.1195 9.53551 24.8865 9.34233 24.5797 9.20312C24.2729 9.06392 23.8979 8.99432 23.4547 8.99432H22.7559V8.05682H23.4547C23.8013 8.05682 24.1053 7.99432 24.3667 7.86932C24.6309 7.74432 24.8368 7.56818 24.9846 7.34091C25.1351 7.11364 25.2104 6.84659 25.2104 6.53977C25.2104 6.24432 25.1451 5.98722 25.0144 5.76847C24.8837 5.54972 24.699 5.37926 24.4604 5.2571C24.2246 5.13494 23.9462 5.07386 23.6252 5.07386C23.324 5.07386 23.04 5.12926 22.7729 5.24006C22.5087 5.34801 22.2928 5.50568 22.1252 5.71307C21.9576 5.91761 21.8667 6.16477 21.8525 6.45455H20.8297C20.8468 5.99716 20.9846 5.59659 21.2431 5.25284C21.5016 4.90625 21.8397 4.63636 22.2573 4.44318C22.6777 4.25 23.1394 4.15341 23.6422 4.15341C24.182 4.15341 24.6451 4.26278 25.0314 4.48153C25.4178 4.69744 25.7147 4.98295 25.9221 5.33807C26.1294 5.69318 26.2331 6.0767 26.2331 6.48864C26.2331 6.98011 26.1039 7.39915 25.8453 7.74574C25.5897 8.09233 25.2417 8.33239 24.8013 8.46591V8.53409C25.3525 8.625 25.7828 8.85937 26.0925 9.23722C26.4022 9.61222 26.557 10.0767 26.557 10.6307C26.557 11.1051 26.4277 11.5312 26.1692 11.9091C25.9135 12.2841 25.5641 12.5795 25.1209 12.7955C24.6777 13.0114 24.1735 13.1193 23.6081 13.1193ZM31.1465 13.1193C30.5044 13.1193 29.9576 12.9446 29.5059 12.5952C29.0542 12.2429 28.709 11.733 28.4703 11.0653C28.2317 10.3949 28.1124 9.58523 28.1124 8.63636C28.1124 7.69318 28.2317 6.88778 28.4703 6.22017C28.7118 5.54972 29.0584 5.03835 29.5101 4.68608C29.9647 4.33097 30.5101 4.15341 31.1465 4.15341C31.7828 4.15341 32.3269 4.33097 32.7786 4.68608C33.2331 5.03835 33.5797 5.54972 33.8184 6.22017C34.0598 6.88778 34.1806 7.69318 34.1806 8.63636C34.1806 9.58523 34.0613 10.3949 33.8226 11.0653C33.584 11.733 33.2388 12.2429 32.7871 12.5952C32.3354 12.9446 31.7885 13.1193 31.1465 13.1193ZM31.1465 12.1818C31.7828 12.1818 32.2772 11.875 32.6294 11.2614C32.9817 10.6477 33.1578 9.77273 33.1578 8.63636C33.1578 7.88068 33.0769 7.23722 32.915 6.70597C32.7559 6.17472 32.5257 5.76989 32.2246 5.49148C31.9263 5.21307 31.5669 5.07386 31.1465 5.07386C30.5158 5.07386 30.0229 5.38494 29.6678 6.0071C29.3127 6.62642 29.1351 7.50284 29.1351 8.63636C29.1351 9.39205 29.2147 10.0341 29.3738 10.5625C29.5328 11.0909 29.7615 11.4929 30.0598 11.7685C30.361 12.044 30.7232 12.1818 31.1465 12.1818ZM38.6465 13.1193C38.0044 13.1193 37.4576 12.9446 37.0059 12.5952C36.5542 12.2429 36.209 11.733 35.9703 11.0653C35.7317 10.3949 35.6124 9.58523 35.6124 8.63636C35.6124 7.69318 35.7317 6.88778 35.9703 6.22017C36.2118 5.54972 36.5584 5.03835 37.0101 4.68608C37.4647 4.33097 38.0101 4.15341 38.6465 4.15341C39.2828 4.15341 39.8269 4.33097 40.2786 4.68608C40.7331 5.03835 41.0797 5.54972 41.3184 6.22017C41.5598 6.88778 41.6806 7.69318 41.6806 8.63636C41.6806 9.58523 41.5613 10.3949 41.3226 11.0653C41.084 11.733 40.7388 12.2429 40.2871 12.5952C39.8354 12.9446 39.2885 13.1193 38.6465 13.1193ZM38.6465 12.1818C39.2828 12.1818 39.7772 11.875 40.1294 11.2614C40.4817 10.6477 40.6578 9.77273 40.6578 8.63636C40.6578 7.88068 40.5769 7.23722 40.415 6.70597C40.2559 6.17472 40.0257 5.76989 39.7246 5.49148C39.4263 5.21307 39.0669 5.07386 38.6465 5.07386C38.0158 5.07386 37.5229 5.38494 37.1678 6.0071C36.8127 6.62642 36.6351 7.50284 36.6351 8.63636C36.6351 9.39205 36.7147 10.0341 36.8738 10.5625C37.0328 11.0909 37.2615 11.4929 37.5598 11.7685C37.861 12.044 38.2232 12.1818 38.6465 12.1818ZM46.1465 13.1193C45.5044 13.1193 44.9576 12.9446 44.5059 12.5952C44.0542 12.2429 43.709 11.733 43.4703 11.0653C43.2317 10.3949 43.1124 9.58523 43.1124 8.63636C43.1124 7.69318 43.2317 6.88778 43.4703 6.22017C43.7118 5.54972 44.0584 5.03835 44.5101 4.68608C44.9647 4.33097 45.5101 4.15341 46.1465 4.15341C46.7828 4.15341 47.3269 4.33097 47.7786 4.68608C48.2331 5.03835 48.5797 5.54972 48.8184 6.22017C49.0598 6.88778 49.1806 7.69318 49.1806 8.63636C49.1806 9.58523 49.0613 10.3949 48.8226 11.0653C48.584 11.733 48.2388 12.2429 47.7871 12.5952C47.3354 12.9446 46.7885 13.1193 46.1465 13.1193ZM46.1465 12.1818C46.7828 12.1818 47.2772 11.875 47.6294 11.2614C47.9817 10.6477 48.1578 9.77273 48.1578 8.63636C48.1578 7.88068 48.0769 7.23722 47.915 6.70597C47.7559 6.17472 47.5257 5.76989 47.2246 5.49148C46.9263 5.21307 46.5669 5.07386 46.1465 5.07386C45.5158 5.07386 45.0229 5.38494 44.6678 6.0071C44.3127 6.62642 44.1351 7.50284 44.1351 8.63636C44.1351 9.39205 44.2147 10.0341 44.3738 10.5625C44.5328 11.0909 44.7615 11.4929 45.0598 11.7685C45.361 12.044 45.7232 12.1818 46.1465 12.1818Z" fill="#697586"/>
<path d="M15.8679 69.891V58.9819H16.5668V69.891H15.8679ZM18.2202 62.2546C18.169 61.8228 17.9616 61.4875 17.598 61.2489C17.2344 61.0103 16.7884 60.891 16.2599 60.891C15.8736 60.891 15.5355 60.9535 15.2457 61.0785C14.9588 61.2035 14.7344 61.3753 14.5724 61.5941C14.4134 61.8128 14.3338 62.0614 14.3338 62.3398C14.3338 62.5728 14.3892 62.7731 14.5 62.9407C14.6136 63.1054 14.7585 63.2432 14.9347 63.354C15.1108 63.462 15.2955 63.5515 15.4886 63.6225C15.6818 63.6907 15.8594 63.7461 16.0213 63.7887L16.9077 64.0273C17.1349 64.087 17.3878 64.1694 17.6662 64.2745C17.9474 64.3796 18.2159 64.5231 18.4716 64.7049C18.7301 64.8839 18.9432 65.114 19.1108 65.3952C19.2784 65.6765 19.3622 66.0216 19.3622 66.4307C19.3622 66.9023 19.2386 67.3285 18.9915 67.7091C18.7472 68.0898 18.3892 68.3924 17.9176 68.6168C17.4489 68.8412 16.8793 68.9535 16.2088 68.9535C15.5838 68.9535 15.0426 68.8526 14.5852 68.6509C14.1307 68.4492 13.7727 68.1679 13.5114 67.8072C13.2528 67.4464 13.1065 67.0273 13.0724 66.55H14.1634C14.1918 66.8796 14.3026 67.1523 14.4957 67.3682C14.6918 67.5813 14.9389 67.7404 15.2372 67.8455C15.5384 67.9478 15.8622 67.9989 16.2088 67.9989C16.6122 67.9989 16.9744 67.9336 17.2955 67.8029C17.6165 67.6694 17.8707 67.4847 18.0582 67.2489C18.2457 67.0103 18.3395 66.7319 18.3395 66.4137C18.3395 66.1239 18.2585 65.8881 18.0966 65.7063C17.9347 65.5245 17.7216 65.3768 17.4574 65.2631C17.1932 65.1495 16.9077 65.05 16.6009 64.9648L15.527 64.658C14.8452 64.462 14.3054 64.1822 13.9077 63.8185C13.5099 63.4549 13.3111 62.979 13.3111 62.391C13.3111 61.9023 13.4432 61.4762 13.7074 61.1125C13.9744 60.7461 14.3324 60.462 14.7812 60.2603C15.233 60.0557 15.7372 59.9535 16.294 59.9535C16.8565 59.9535 17.3565 60.0543 17.794 60.256C18.2315 60.4549 18.5781 60.7276 18.8338 61.0742C19.0923 61.4208 19.2287 61.8143 19.2429 62.2546H18.2202ZM20.9464 68.8V68.033L23.8271 64.8796C24.1651 64.5103 24.4435 64.1893 24.6623 63.9165C24.881 63.641 25.043 63.3824 25.1481 63.141C25.256 62.8966 25.31 62.641 25.31 62.3739C25.31 62.0671 25.2362 61.8015 25.0884 61.577C24.9435 61.3526 24.7447 61.1793 24.4918 61.0572C24.239 60.935 23.9549 60.8739 23.6396 60.8739C23.3043 60.8739 23.0117 60.9435 22.7617 61.0827C22.5146 61.2191 22.3228 61.4108 22.1864 61.658C22.0529 61.9052 21.9862 62.1949 21.9862 62.5273H20.9805C20.9805 62.016 21.0984 61.5671 21.3342 61.1807C21.57 60.7944 21.891 60.4932 22.2972 60.2773C22.7063 60.0614 23.1651 59.9535 23.6737 59.9535C24.185 59.9535 24.6381 60.0614 25.033 60.2773C25.4279 60.4932 25.7376 60.7844 25.962 61.1509C26.1864 61.5174 26.2987 61.925 26.2987 62.3739C26.2987 62.6949 26.2404 63.0089 26.1239 63.3157C26.0103 63.6197 25.8114 63.9591 25.5273 64.3341C25.2461 64.7063 24.8555 65.1608 24.3555 65.6978L22.3952 67.7944V67.8625H26.4521V68.8H20.9464ZM30.9393 68.9194C30.4393 68.9194 29.989 68.8199 29.5884 68.6211C29.1879 68.4222 28.8668 68.1495 28.6254 67.8029C28.3839 67.4563 28.2518 67.0614 28.229 66.6182H29.2518C29.2915 67.0131 29.4705 67.3398 29.7887 67.5983C30.1097 67.854 30.4933 67.9819 30.9393 67.9819C31.2972 67.9819 31.6154 67.8981 31.8938 67.7304C32.1751 67.5628 32.3952 67.3327 32.5543 67.0401C32.7163 66.7447 32.7972 66.4108 32.7972 66.0387C32.7972 65.658 32.7134 65.3185 32.5458 65.0202C32.381 64.7191 32.1538 64.4819 31.864 64.3086C31.5742 64.1353 31.2433 64.0472 30.8711 64.0444C30.604 64.0415 30.3299 64.0827 30.0487 64.1679C29.7674 64.2503 29.5359 64.3569 29.354 64.4875L28.3654 64.3682L28.8938 60.0728H33.4279V61.0103H29.7802L29.4734 63.5841H29.5245C29.7035 63.4421 29.9279 63.3242 30.1978 63.2304C30.4677 63.1367 30.7489 63.0898 31.0415 63.0898C31.5756 63.0898 32.0515 63.2177 32.4691 63.4733C32.8896 63.7262 33.2191 64.0728 33.4577 64.5131C33.6992 64.9535 33.82 65.4563 33.82 66.0216C33.82 66.5785 33.695 67.0756 33.445 67.5131C33.1978 67.9478 32.8569 68.2915 32.4222 68.5444C31.9876 68.7944 31.4933 68.9194 30.9393 68.9194ZM38.3594 68.9194C37.7173 68.9194 37.1705 68.7447 36.7188 68.3952C36.267 68.0429 35.9219 67.533 35.6832 66.8654C35.4446 66.1949 35.3253 65.3853 35.3253 64.4364C35.3253 63.4932 35.4446 62.6878 35.6832 62.0202C35.9247 61.3498 36.2713 60.8384 36.723 60.4861C37.1776 60.131 37.723 59.9535 38.3594 59.9535C38.9957 59.9535 39.5398 60.131 39.9915 60.4861C40.446 60.8384 40.7926 61.3498 41.0312 62.0202C41.2727 62.6878 41.3935 63.4932 41.3935 64.4364C41.3935 65.3853 41.2741 66.1949 41.0355 66.8654C40.7969 67.533 40.4517 68.0429 40 68.3952C39.5483 68.7447 39.0014 68.9194 38.3594 68.9194ZM38.3594 67.9819C38.9957 67.9819 39.4901 67.675 39.8423 67.0614C40.1946 66.4478 40.3707 65.5728 40.3707 64.4364C40.3707 63.6807 40.2898 63.0373 40.1278 62.506C39.9688 61.9748 39.7386 61.5699 39.4375 61.2915C39.1392 61.0131 38.7798 60.8739 38.3594 60.8739C37.7287 60.8739 37.2358 61.185 36.8807 61.8072C36.5256 62.4265 36.348 63.3029 36.348 64.4364C36.348 65.1921 36.4276 65.8341 36.5866 66.3625C36.7457 66.891 36.9744 67.2929 37.2727 67.5685C37.5739 67.8441 37.9361 67.9819 38.3594 67.9819ZM45.8594 68.9194C45.2173 68.9194 44.6705 68.7447 44.2188 68.3952C43.767 68.0429 43.4219 67.533 43.1832 66.8654C42.9446 66.1949 42.8253 65.3853 42.8253 64.4364C42.8253 63.4932 42.9446 62.6878 43.1832 62.0202C43.4247 61.3498 43.7713 60.8384 44.223 60.4861C44.6776 60.131 45.223 59.9535 45.8594 59.9535C46.4957 59.9535 47.0398 60.131 47.4915 60.4861C47.946 60.8384 48.2926 61.3498 48.5312 62.0202C48.7727 62.6878 48.8935 63.4932 48.8935 64.4364C48.8935 65.3853 48.7741 66.1949 48.5355 66.8654C48.2969 67.533 47.9517 68.0429 47.5 68.3952C47.0483 68.7447 46.5014 68.9194 45.8594 68.9194ZM45.8594 67.9819C46.4957 67.9819 46.9901 67.675 47.3423 67.0614C47.6946 66.4478 47.8707 65.5728 47.8707 64.4364C47.8707 63.6807 47.7898 63.0373 47.6278 62.506C47.4688 61.9748 47.2386 61.5699 46.9375 61.2915C46.6392 61.0131 46.2798 60.8739 45.8594 60.8739C45.2287 60.8739 44.7358 61.185 44.3807 61.8072C44.0256 62.4265 43.848 63.3029 43.848 64.4364C43.848 65.1921 43.9276 65.8341 44.0866 66.3625C44.2457 66.891 44.4744 67.2929 44.7727 67.5685C45.0739 67.8441 45.4361 67.9819 45.8594 67.9819Z" fill="#697586"/>
<path d="M15.7683 125.691V114.782H16.4672V125.691H15.7683ZM18.1206 118.055C18.0694 117.623 17.862 117.288 17.4984 117.049C17.1348 116.81 16.6887 116.691 16.1603 116.691C15.774 116.691 15.4359 116.754 15.1461 116.879C14.8592 117.004 14.6348 117.175 14.4728 117.394C14.3137 117.613 14.2342 117.861 14.2342 118.14C14.2342 118.373 14.2896 118.573 14.4004 118.741C14.514 118.905 14.6589 119.043 14.835 119.154C15.0112 119.262 15.1958 119.352 15.389 119.423C15.5822 119.491 15.7598 119.546 15.9217 119.589L16.8081 119.827C17.0353 119.887 17.2882 119.969 17.5666 120.075C17.8478 120.18 18.1163 120.323 18.372 120.505C18.6305 120.684 18.8436 120.914 19.0112 121.195C19.1788 121.477 19.2626 121.822 19.2626 122.231C19.2626 122.702 19.139 123.129 18.8919 123.509C18.6475 123.89 18.2896 124.192 17.818 124.417C17.3493 124.641 16.7797 124.754 16.1092 124.754C15.4842 124.754 14.943 124.653 14.4856 124.451C14.0311 124.249 13.6731 123.968 13.4118 123.607C13.1532 123.246 13.0069 122.827 12.9728 122.35H14.0637C14.0922 122.68 14.2029 122.952 14.3961 123.168C14.5922 123.381 14.8393 123.54 15.1376 123.646C15.4387 123.748 15.7626 123.799 16.1092 123.799C16.5126 123.799 16.8748 123.734 17.1958 123.603C17.5169 123.469 17.7711 123.285 17.9586 123.049C18.1461 122.81 18.2399 122.532 18.2399 122.214C18.2399 121.924 18.1589 121.688 17.997 121.506C17.835 121.325 17.622 121.177 17.3578 121.063C17.0936 120.95 16.8081 120.85 16.5012 120.765L15.4274 120.458C14.7456 120.262 14.2058 119.982 13.8081 119.619C13.4103 119.255 13.2115 118.779 13.2115 118.191C13.2115 117.702 13.3436 117.276 13.6078 116.913C13.8748 116.546 14.2328 116.262 14.6816 116.06C15.1333 115.856 15.6376 115.754 16.1944 115.754C16.7569 115.754 17.2569 115.854 17.6944 116.056C18.1319 116.255 18.4785 116.528 18.7342 116.874C18.9927 117.221 19.1291 117.614 19.1433 118.055H18.1206ZM20.8468 124.6V123.833L23.7275 120.68C24.0655 120.31 24.3439 119.989 24.5627 119.717C24.7814 119.441 24.9434 119.182 25.0485 118.941C25.1564 118.697 25.2104 118.441 25.2104 118.174C25.2104 117.867 25.1365 117.602 24.9888 117.377C24.8439 117.153 24.6451 116.979 24.3922 116.857C24.1394 116.735 23.8553 116.674 23.54 116.674C23.2047 116.674 22.9121 116.744 22.6621 116.883C22.415 117.019 22.2232 117.211 22.0868 117.458C21.9533 117.705 21.8865 117.995 21.8865 118.327H20.8809C20.8809 117.816 20.9988 117.367 21.2346 116.981C21.4703 116.594 21.7914 116.293 22.1976 116.077C22.6067 115.861 23.0655 115.754 23.574 115.754C24.0854 115.754 24.5385 115.861 24.9334 116.077C25.3283 116.293 25.638 116.584 25.8624 116.951C26.0868 117.317 26.199 117.725 26.199 118.174C26.199 118.495 26.1408 118.809 26.0243 119.116C25.9107 119.42 25.7118 119.759 25.4277 120.134C25.1465 120.506 24.7559 120.961 24.2559 121.498L22.2956 123.594V123.663H26.3525V124.6H20.8468ZM30.959 124.719C30.3169 124.719 29.7701 124.545 29.3184 124.195C28.8667 123.843 28.5215 123.333 28.2828 122.665C28.0442 121.995 27.9249 121.185 27.9249 120.236C27.9249 119.293 28.0442 118.488 28.2828 117.82C28.5243 117.15 28.8709 116.638 29.3226 116.286C29.7772 115.931 30.3226 115.754 30.959 115.754C31.5953 115.754 32.1394 115.931 32.5911 116.286C33.0456 116.638 33.3922 117.15 33.6309 117.82C33.8723 118.488 33.9931 119.293 33.9931 120.236C33.9931 121.185 33.8738 121.995 33.6351 122.665C33.3965 123.333 33.0513 123.843 32.5996 124.195C32.1479 124.545 31.601 124.719 30.959 124.719ZM30.959 123.782C31.5953 123.782 32.0897 123.475 32.4419 122.861C32.7942 122.248 32.9703 121.373 32.9703 120.236C32.9703 119.481 32.8894 118.837 32.7275 118.306C32.5684 117.775 32.3382 117.37 32.0371 117.092C31.7388 116.813 31.3794 116.674 30.959 116.674C30.3283 116.674 29.8354 116.985 29.4803 117.607C29.1252 118.227 28.9476 119.103 28.9476 120.236C28.9476 120.992 29.0272 121.634 29.1863 122.163C29.3453 122.691 29.574 123.093 29.8723 123.369C30.1735 123.644 30.5357 123.782 30.959 123.782ZM38.459 124.719C37.8169 124.719 37.2701 124.545 36.8184 124.195C36.3667 123.843 36.0215 123.333 35.7828 122.665C35.5442 121.995 35.4249 121.185 35.4249 120.236C35.4249 119.293 35.5442 118.488 35.7828 117.82C36.0243 117.15 36.3709 116.638 36.8226 116.286C37.2772 115.931 37.8226 115.754 38.459 115.754C39.0953 115.754 39.6394 115.931 40.0911 116.286C40.5456 116.638 40.8922 117.15 41.1309 117.82C41.3723 118.488 41.4931 119.293 41.4931 120.236C41.4931 121.185 41.3738 121.995 41.1351 122.665C40.8965 123.333 40.5513 123.843 40.0996 124.195C39.6479 124.545 39.101 124.719 38.459 124.719ZM38.459 123.782C39.0953 123.782 39.5897 123.475 39.9419 122.861C40.2942 122.248 40.4703 121.373 40.4703 120.236C40.4703 119.481 40.3894 118.837 40.2275 118.306C40.0684 117.775 39.8382 117.37 39.5371 117.092C39.2388 116.813 38.8794 116.674 38.459 116.674C37.8283 116.674 37.3354 116.985 36.9803 117.607C36.6252 118.227 36.4476 119.103 36.4476 120.236C36.4476 120.992 36.5272 121.634 36.6863 122.163C36.8453 122.691 37.074 123.093 37.3723 123.369C37.6735 123.644 38.0357 123.782 38.459 123.782ZM45.959 124.719C45.3169 124.719 44.7701 124.545 44.3184 124.195C43.8667 123.843 43.5215 123.333 43.2828 122.665C43.0442 121.995 42.9249 121.185 42.9249 120.236C42.9249 119.293 43.0442 118.488 43.2828 117.82C43.5243 117.15 43.8709 116.638 44.3226 116.286C44.7772 115.931 45.3226 115.754 45.959 115.754C46.5953 115.754 47.1394 115.931 47.5911 116.286C48.0456 116.638 48.3922 117.15 48.6309 117.82C48.8723 118.488 48.9931 119.293 48.9931 120.236C48.9931 121.185 48.8738 121.995 48.6351 122.665C48.3965 123.333 48.0513 123.843 47.5996 124.195C47.1479 124.545 46.601 124.719 45.959 124.719ZM45.959 123.782C46.5953 123.782 47.0897 123.475 47.4419 122.861C47.7942 122.248 47.9703 121.373 47.9703 120.236C47.9703 119.481 47.8894 118.837 47.7275 118.306C47.5684 117.775 47.3382 117.37 47.0371 117.092C46.7388 116.813 46.3794 116.674 45.959 116.674C45.3283 116.674 44.8354 116.985 44.4803 117.607C44.1252 118.227 43.9476 119.103 43.9476 120.236C43.9476 120.992 44.0272 121.634 44.1863 122.163C44.3453 122.691 44.574 123.093 44.8723 123.369C45.1735 123.644 45.5357 123.782 45.959 123.782Z" fill="#697586"/>
<path d="M16.7116 181.491V170.582H17.4105V181.491H16.7116ZM19.0639 173.854C19.0128 173.423 18.8054 173.087 18.4418 172.849C18.0781 172.61 17.6321 172.491 17.1037 172.491C16.7173 172.491 16.3793 172.553 16.0895 172.678C15.8026 172.803 15.5781 172.975 15.4162 173.194C15.2571 173.413 15.1776 173.661 15.1776 173.94C15.1776 174.173 15.233 174.373 15.3438 174.541C15.4574 174.705 15.6023 174.843 15.7784 174.954C15.9545 175.062 16.1392 175.151 16.3324 175.222C16.5256 175.291 16.7031 175.346 16.8651 175.389L17.7514 175.627C17.9787 175.687 18.2315 175.769 18.5099 175.874C18.7912 175.979 19.0597 176.123 19.3153 176.305C19.5739 176.484 19.7869 176.714 19.9545 176.995C20.1222 177.276 20.206 177.621 20.206 178.031C20.206 178.502 20.0824 178.928 19.8352 179.309C19.5909 179.69 19.233 179.992 18.7614 180.217C18.2926 180.441 17.723 180.553 17.0526 180.553C16.4276 180.553 15.8864 180.452 15.429 180.251C14.9744 180.049 14.6165 179.768 14.3551 179.407C14.0966 179.046 13.9503 178.627 13.9162 178.15H15.0071C15.0355 178.479 15.1463 178.752 15.3395 178.968C15.5355 179.181 15.7827 179.34 16.081 179.445C16.3821 179.548 16.706 179.599 17.0526 179.599C17.456 179.599 17.8182 179.533 18.1392 179.403C18.4602 179.269 18.7145 179.085 18.902 178.849C19.0895 178.61 19.1832 178.332 19.1832 178.014C19.1832 177.724 19.1023 177.488 18.9403 177.306C18.7784 177.124 18.5653 176.977 18.3011 176.863C18.0369 176.749 17.7514 176.65 17.4446 176.565L16.3707 176.258C15.6889 176.062 15.1491 175.782 14.7514 175.418C14.3537 175.055 14.1548 174.579 14.1548 173.991C14.1548 173.502 14.2869 173.076 14.5511 172.712C14.8182 172.346 15.1761 172.062 15.625 171.86C16.0767 171.656 16.581 171.553 17.1378 171.553C17.7003 171.553 18.2003 171.654 18.6378 171.856C19.0753 172.055 19.4219 172.327 19.6776 172.674C19.9361 173.021 20.0724 173.414 20.0866 173.854H19.0639ZM24.8583 171.673V180.4H23.8015V172.781H23.7504L21.6197 174.195V173.121L23.8015 171.673H24.8583ZM30.0955 180.519C29.5955 180.519 29.1452 180.42 28.7447 180.221C28.3441 180.022 28.0231 179.749 27.7816 179.403C27.5401 179.056 27.408 178.661 27.3853 178.218H28.408C28.4478 178.613 28.6268 178.94 28.945 179.198C29.266 179.454 29.6495 179.582 30.0955 179.582C30.4535 179.582 30.7717 179.498 31.0501 179.33C31.3313 179.163 31.5515 178.933 31.7106 178.64C31.8725 178.345 31.9535 178.011 31.9535 177.639C31.9535 177.258 31.8697 176.918 31.7021 176.62C31.5373 176.319 31.31 176.082 31.0202 175.908C30.7305 175.735 30.3995 175.647 30.0273 175.644C29.7603 175.641 29.4862 175.683 29.2049 175.768C28.9237 175.85 28.6921 175.957 28.5103 176.087L27.5217 175.968L28.0501 171.673H32.5842V172.61H28.9364L28.6296 175.184H28.6808C28.8597 175.042 29.0842 174.924 29.354 174.83C29.6239 174.737 29.9052 174.69 30.1978 174.69C30.7319 174.69 31.2077 174.818 31.6254 175.073C32.0458 175.326 32.3754 175.673 32.614 176.113C32.8555 176.553 32.9762 177.056 32.9762 177.621C32.9762 178.178 32.8512 178.675 32.6012 179.113C32.354 179.548 32.0131 179.891 31.5785 180.144C31.1438 180.394 30.6495 180.519 30.0955 180.519ZM37.5156 180.519C36.8736 180.519 36.3267 180.345 35.875 179.995C35.4233 179.643 35.0781 179.133 34.8395 178.465C34.6009 177.795 34.4815 176.985 34.4815 176.036C34.4815 175.093 34.6009 174.288 34.8395 173.62C35.081 172.95 35.4276 172.438 35.8793 172.086C36.3338 171.731 36.8793 171.553 37.5156 171.553C38.152 171.553 38.696 171.731 39.1477 172.086C39.6023 172.438 39.9489 172.95 40.1875 173.62C40.429 174.288 40.5497 175.093 40.5497 176.036C40.5497 176.985 40.4304 177.795 40.1918 178.465C39.9531 179.133 39.608 179.643 39.1562 179.995C38.7045 180.345 38.1577 180.519 37.5156 180.519ZM37.5156 179.582C38.152 179.582 38.6463 179.275 38.9986 178.661C39.3509 178.048 39.527 177.173 39.527 176.036C39.527 175.281 39.446 174.637 39.2841 174.106C39.125 173.575 38.8949 173.17 38.5938 172.891C38.2955 172.613 37.9361 172.474 37.5156 172.474C36.8849 172.474 36.392 172.785 36.0369 173.407C35.6818 174.026 35.5043 174.903 35.5043 176.036C35.5043 176.792 35.5838 177.434 35.7429 177.962C35.902 178.491 36.1307 178.893 36.429 179.168C36.7301 179.444 37.0923 179.582 37.5156 179.582ZM45.0156 180.519C44.3736 180.519 43.8267 180.345 43.375 179.995C42.9233 179.643 42.5781 179.133 42.3395 178.465C42.1009 177.795 41.9815 176.985 41.9815 176.036C41.9815 175.093 42.1009 174.288 42.3395 173.62C42.581 172.95 42.9276 172.438 43.3793 172.086C43.8338 171.731 44.3793 171.553 45.0156 171.553C45.652 171.553 46.196 171.731 46.6477 172.086C47.1023 172.438 47.4489 172.95 47.6875 173.62C47.929 174.288 48.0497 175.093 48.0497 176.036C48.0497 176.985 47.9304 177.795 47.6918 178.465C47.4531 179.133 47.108 179.643 46.6562 179.995C46.2045 180.345 45.6577 180.519 45.0156 180.519ZM45.0156 179.582C45.652 179.582 46.1463 179.275 46.4986 178.661C46.8509 178.048 47.027 177.173 47.027 176.036C47.027 175.281 46.946 174.637 46.7841 174.106C46.625 173.575 46.3949 173.17 46.0938 172.891C45.7955 172.613 45.4361 172.474 45.0156 172.474C44.3849 172.474 43.892 172.785 43.5369 173.407C43.1818 174.026 43.0043 174.903 43.0043 176.036C43.0043 176.792 43.0838 177.434 43.2429 177.962C43.402 178.491 43.6307 178.893 43.929 179.168C44.2301 179.444 44.5923 179.582 45.0156 179.582Z" fill="#697586"/>
<path d="M16.612 237.291V226.382H17.3109V237.291H16.612ZM18.9643 229.654C18.9132 229.223 18.7058 228.887 18.3422 228.649C17.9785 228.41 17.5325 228.291 17.0041 228.291C16.6177 228.291 16.2797 228.353 15.9899 228.478C15.7029 228.603 15.4785 228.775 15.3166 228.994C15.1575 229.213 15.0779 229.461 15.0779 229.74C15.0779 229.973 15.1333 230.173 15.2441 230.341C15.3578 230.505 15.5027 230.643 15.6788 230.754C15.8549 230.862 16.0396 230.951 16.2328 231.022C16.426 231.091 16.6035 231.146 16.7654 231.189L17.6518 231.427C17.8791 231.487 18.1319 231.569 18.4103 231.674C18.6916 231.779 18.96 231.923 19.2157 232.105C19.4743 232.284 19.6873 232.514 19.8549 232.795C20.0226 233.076 20.1064 233.422 20.1064 233.831C20.1064 234.302 19.9828 234.728 19.7356 235.109C19.4913 235.49 19.1333 235.792 18.6618 236.017C18.193 236.241 17.6234 236.353 16.9529 236.353C16.3279 236.353 15.7868 236.253 15.3294 236.051C14.8748 235.849 14.5169 235.568 14.2555 235.207C13.997 234.846 13.8507 234.427 13.8166 233.95H14.9075C14.9359 234.279 15.0467 234.552 15.2399 234.768C15.4359 234.981 15.6831 235.14 15.9814 235.245C16.2825 235.348 16.6064 235.399 16.9529 235.399C17.3564 235.399 17.7186 235.333 18.0396 235.203C18.3606 235.069 18.6149 234.885 18.8024 234.649C18.9899 234.41 19.0836 234.132 19.0836 233.814C19.0836 233.524 19.0027 233.288 18.8407 233.106C18.6788 232.924 18.4657 232.777 18.2015 232.663C17.9373 232.549 17.6518 232.45 17.345 232.365L16.2711 232.058C15.5893 231.862 15.0495 231.582 14.6518 231.218C14.2541 230.855 14.0552 230.379 14.0552 229.791C14.0552 229.302 14.1873 228.876 14.4515 228.512C14.7186 228.146 15.0765 227.862 15.5254 227.66C15.9771 227.456 16.4814 227.353 17.0382 227.353C17.6007 227.353 18.1007 227.454 18.5382 227.656C18.9757 227.855 19.3223 228.128 19.5779 228.474C19.8365 228.821 19.9728 229.214 19.987 229.654H18.9643ZM24.7587 227.473V236.2H23.7019V228.581H23.6507L21.5201 229.995V228.922L23.7019 227.473H24.7587ZM30.1152 236.319C29.4732 236.319 28.9263 236.145 28.4746 235.795C28.0229 235.443 27.6777 234.933 27.4391 234.265C27.2005 233.595 27.0811 232.785 27.0811 231.836C27.0811 230.893 27.2005 230.088 27.4391 229.42C27.6806 228.75 28.0272 228.238 28.4789 227.886C28.9334 227.531 29.4789 227.353 30.1152 227.353C30.7516 227.353 31.2956 227.531 31.7473 227.886C32.2019 228.238 32.5485 228.75 32.7871 229.42C33.0286 230.088 33.1493 230.893 33.1493 231.836C33.1493 232.785 33.03 233.595 32.7914 234.265C32.5527 234.933 32.2076 235.443 31.7559 235.795C31.3042 236.145 30.7573 236.319 30.1152 236.319ZM30.1152 235.382C30.7516 235.382 31.2459 235.075 31.5982 234.461C31.9505 233.848 32.1266 232.973 32.1266 231.836C32.1266 231.081 32.0456 230.437 31.8837 229.906C31.7246 229.375 31.4945 228.97 31.1934 228.691C30.8951 228.413 30.5357 228.274 30.1152 228.274C29.4846 228.274 28.9917 228.585 28.6365 229.207C28.2814 229.826 28.1039 230.703 28.1039 231.836C28.1039 232.592 28.1834 233.234 28.3425 233.762C28.5016 234.291 28.7303 234.693 29.0286 234.968C29.3297 235.244 29.6919 235.382 30.1152 235.382ZM37.6152 236.319C36.9732 236.319 36.4263 236.145 35.9746 235.795C35.5229 235.443 35.1777 234.933 34.9391 234.265C34.7005 233.595 34.5811 232.785 34.5811 231.836C34.5811 230.893 34.7005 230.088 34.9391 229.42C35.1806 228.75 35.5272 228.238 35.9789 227.886C36.4334 227.531 36.9789 227.353 37.6152 227.353C38.2516 227.353 38.7956 227.531 39.2473 227.886C39.7019 228.238 40.0485 228.75 40.2871 229.42C40.5286 230.088 40.6493 230.893 40.6493 231.836C40.6493 232.785 40.53 233.595 40.2914 234.265C40.0527 234.933 39.7076 235.443 39.2559 235.795C38.8042 236.145 38.2573 236.319 37.6152 236.319ZM37.6152 235.382C38.2516 235.382 38.7459 235.075 39.0982 234.461C39.4505 233.848 39.6266 232.973 39.6266 231.836C39.6266 231.081 39.5456 230.437 39.3837 229.906C39.2246 229.375 38.9945 228.97 38.6934 228.691C38.3951 228.413 38.0357 228.274 37.6152 228.274C36.9846 228.274 36.4917 228.585 36.1365 229.207C35.7814 229.826 35.6039 230.703 35.6039 231.836C35.6039 232.592 35.6834 233.234 35.8425 233.762C36.0016 234.291 36.2303 234.693 36.5286 234.968C36.8297 235.244 37.1919 235.382 37.6152 235.382ZM45.1152 236.319C44.4732 236.319 43.9263 236.145 43.4746 235.795C43.0229 235.443 42.6777 234.933 42.4391 234.265C42.2005 233.595 42.0811 232.785 42.0811 231.836C42.0811 230.893 42.2005 230.088 42.4391 229.42C42.6806 228.75 43.0272 228.238 43.4789 227.886C43.9334 227.531 44.4789 227.353 45.1152 227.353C45.7516 227.353 46.2956 227.531 46.7473 227.886C47.2019 228.238 47.5485 228.75 47.7871 229.42C48.0286 230.088 48.1493 230.893 48.1493 231.836C48.1493 232.785 48.03 233.595 47.7914 234.265C47.5527 234.933 47.2076 235.443 46.7559 235.795C46.3042 236.145 45.7573 236.319 45.1152 236.319ZM45.1152 235.382C45.7516 235.382 46.2459 235.075 46.5982 234.461C46.9505 233.848 47.1266 232.973 47.1266 231.836C47.1266 231.081 47.0456 230.437 46.8837 229.906C46.7246 229.375 46.4945 228.97 46.1934 228.691C45.8951 228.413 45.5357 228.274 45.1152 228.274C44.4846 228.274 43.9917 228.585 43.6365 229.207C43.2814 229.826 43.1039 230.703 43.1039 231.836C43.1039 232.592 43.1834 233.234 43.3425 233.762C43.5016 234.291 43.7303 234.693 44.0286 234.968C44.3297 235.244 44.6919 235.382 45.1152 235.382Z" fill="#697586"/>
<path d="M19.5007 293.091V282.182H20.1996V293.091H19.5007ZM21.853 285.455C21.8018 285.023 21.5945 284.688 21.2308 284.449C20.8672 284.21 20.4212 284.091 19.8928 284.091C19.5064 284.091 19.1683 284.153 18.8786 284.278C18.5916 284.403 18.3672 284.575 18.2053 284.794C18.0462 285.013 17.9666 285.261 17.9666 285.54C17.9666 285.773 18.022 285.973 18.1328 286.141C18.2464 286.305 18.3913 286.443 18.5675 286.554C18.7436 286.662 18.9283 286.751 19.1214 286.822C19.3146 286.891 19.4922 286.946 19.6541 286.989L20.5405 287.227C20.7678 287.287 21.0206 287.369 21.299 287.474C21.5803 287.58 21.8487 287.723 22.1044 287.905C22.3629 288.084 22.576 288.314 22.7436 288.595C22.9112 288.876 22.995 289.222 22.995 289.631C22.995 290.102 22.8714 290.528 22.6243 290.909C22.38 291.29 22.022 291.592 21.5504 291.817C21.0817 292.041 20.5121 292.153 19.8416 292.153C19.2166 292.153 18.6754 292.053 18.218 291.851C17.7635 291.649 17.4055 291.368 17.1442 291.007C16.8857 290.646 16.7393 290.227 16.7053 289.75H17.7962C17.8246 290.08 17.9354 290.352 18.1286 290.568C18.3246 290.781 18.5717 290.94 18.87 291.045C19.1712 291.148 19.495 291.199 19.8416 291.199C20.245 291.199 20.6072 291.134 20.9283 291.003C21.2493 290.869 21.5036 290.685 21.6911 290.449C21.8786 290.21 21.9723 289.932 21.9723 289.614C21.9723 289.324 21.8913 289.088 21.7294 288.906C21.5675 288.724 21.3544 288.577 21.0902 288.463C20.826 288.349 20.5405 288.25 20.2337 288.165L19.1598 287.858C18.478 287.662 17.9382 287.382 17.5405 287.018C17.1428 286.655 16.9439 286.179 16.9439 285.591C16.9439 285.102 17.076 284.676 17.3402 284.312C17.6072 283.946 17.9652 283.662 18.4141 283.46C18.8658 283.256 19.37 283.153 19.9268 283.153C20.4893 283.153 20.9893 283.254 21.4268 283.456C21.8643 283.655 22.2109 283.928 22.4666 284.274C22.7251 284.621 22.8615 285.014 22.8757 285.455H21.853ZM27.3065 292.119C26.8065 292.119 26.3562 292.02 25.9556 291.821C25.555 291.622 25.234 291.349 24.9925 291.003C24.7511 290.656 24.619 290.261 24.5962 289.818H25.619C25.6587 290.213 25.8377 290.54 26.1559 290.798C26.4769 291.054 26.8604 291.182 27.3065 291.182C27.6644 291.182 27.9826 291.098 28.261 290.93C28.5423 290.763 28.7624 290.533 28.9215 290.24C29.0835 289.945 29.1644 289.611 29.1644 289.239C29.1644 288.858 29.0806 288.518 28.913 288.22C28.7482 287.919 28.521 287.682 28.2312 287.509C27.9414 287.335 27.6104 287.247 27.2383 287.244C26.9712 287.241 26.6971 287.283 26.4158 287.368C26.1346 287.45 25.9031 287.557 25.7212 287.688L24.7326 287.568L25.261 283.273H29.7951V284.21H26.1474L25.8406 286.784H25.8917C26.0707 286.642 26.2951 286.524 26.565 286.43C26.8349 286.337 27.1161 286.29 27.4087 286.29C27.9428 286.29 28.4187 286.418 28.8363 286.673C29.2567 286.926 29.5863 287.273 29.8249 287.713C30.0664 288.153 30.1871 288.656 30.1871 289.222C30.1871 289.778 30.0621 290.276 29.8121 290.713C29.565 291.148 29.2241 291.491 28.7894 291.744C28.3548 291.994 27.8604 292.119 27.3065 292.119ZM34.7266 292.119C34.0845 292.119 33.5376 291.945 33.0859 291.595C32.6342 291.243 32.2891 290.733 32.0504 290.065C31.8118 289.395 31.6925 288.585 31.6925 287.636C31.6925 286.693 31.8118 285.888 32.0504 285.22C32.2919 284.55 32.6385 284.038 33.0902 283.686C33.5447 283.331 34.0902 283.153 34.7266 283.153C35.3629 283.153 35.907 283.331 36.3587 283.686C36.8132 284.038 37.1598 284.55 37.3984 285.22C37.6399 285.888 37.7607 286.693 37.7607 287.636C37.7607 288.585 37.6413 289.395 37.4027 290.065C37.1641 290.733 36.8189 291.243 36.3672 291.595C35.9155 291.945 35.3686 292.119 34.7266 292.119ZM34.7266 291.182C35.3629 291.182 35.8572 290.875 36.2095 290.261C36.5618 289.648 36.7379 288.773 36.7379 287.636C36.7379 286.881 36.657 286.237 36.495 285.706C36.3359 285.175 36.1058 284.77 35.8047 284.491C35.5064 284.213 35.147 284.074 34.7266 284.074C34.0959 284.074 33.603 284.385 33.2479 285.007C32.8928 285.626 32.7152 286.503 32.7152 287.636C32.7152 288.392 32.7947 289.034 32.9538 289.562C33.1129 290.091 33.3416 290.493 33.6399 290.768C33.9411 291.044 34.3033 291.182 34.7266 291.182ZM42.2266 292.119C41.5845 292.119 41.0376 291.945 40.5859 291.595C40.1342 291.243 39.7891 290.733 39.5504 290.065C39.3118 289.395 39.1925 288.585 39.1925 287.636C39.1925 286.693 39.3118 285.888 39.5504 285.22C39.7919 284.55 40.1385 284.038 40.5902 283.686C41.0447 283.331 41.5902 283.153 42.2266 283.153C42.8629 283.153 43.407 283.331 43.8587 283.686C44.3132 284.038 44.6598 284.55 44.8984 285.22C45.1399 285.888 45.2607 286.693 45.2607 287.636C45.2607 288.585 45.1413 289.395 44.9027 290.065C44.6641 290.733 44.3189 291.243 43.8672 291.595C43.4155 291.945 42.8686 292.119 42.2266 292.119ZM42.2266 291.182C42.8629 291.182 43.3572 290.875 43.7095 290.261C44.0618 289.648 44.2379 288.773 44.2379 287.636C44.2379 286.881 44.157 286.237 43.995 285.706C43.8359 285.175 43.6058 284.77 43.3047 284.491C43.0064 284.213 42.647 284.074 42.2266 284.074C41.5959 284.074 41.103 284.385 40.7479 285.007C40.3928 285.626 40.2152 286.503 40.2152 287.636C40.2152 288.392 40.2947 289.034 40.4538 289.562C40.6129 290.091 40.8416 290.493 41.1399 290.768C41.4411 291.044 41.8033 291.182 42.2266 291.182Z" fill="#697586"/>
<line x1="88" y1="7.5" x2="1024" y2="7.5" stroke="#EEF2F6"/>
<line x1="88" y1="63.7" x2="1024" y2="63.7" stroke="#EEF2F6"/>
<line x1="88" y1="119.9" x2="1024" y2="119.9" stroke="#EEF2F6"/>
<line x1="88" y1="176.1" x2="1024" y2="176.1" stroke="#EEF2F6"/>
<line x1="88" y1="232.3" x2="1024" y2="232.3" stroke="#EEF2F6"/>
<line x1="88" y1="288.5" x2="1024" y2="288.5" stroke="#EEF2F6"/>
<path d="M100 231.905L182.838 168.286L266.93 269.53L347.885 73.199L435.116 190.177L518.581 73.8831L600.164 240.114L682.374 13L767.722 216.856L851.187 116.98L933.397 169.654L1020 32.5" stroke="#4F46E5" stroke-width="2.5" stroke-linecap="round" stroke-linejoin="round"/>
<path d="M92.3977 308.273H93.4545V314.511C93.4545 315.068 93.3523 315.541 93.1477 315.93C92.9432 316.32 92.6548 316.615 92.2827 316.817C91.9105 317.018 91.4716 317.119 90.9659 317.119C90.4886 317.119 90.0639 317.033 89.6918 316.859C89.3196 316.683 89.027 316.433 88.8139 316.109C88.6009 315.786 88.4943 315.401 88.4943 314.955H89.5341C89.5341 315.202 89.5952 315.418 89.7173 315.602C89.8423 315.784 90.0128 315.926 90.2287 316.028C90.4446 316.131 90.6903 316.182 90.9659 316.182C91.2699 316.182 91.5284 316.118 91.7415 315.99C91.9545 315.862 92.1165 315.675 92.2273 315.428C92.3409 315.178 92.3977 314.872 92.3977 314.511V308.273ZM97.3622 317.153C96.9474 317.153 96.571 317.075 96.233 316.919C95.8949 316.76 95.6264 316.531 95.4276 316.233C95.2287 315.932 95.1293 315.568 95.1293 315.142C95.1293 314.767 95.2031 314.463 95.3509 314.23C95.4986 313.994 95.696 313.81 95.9432 313.676C96.1903 313.543 96.4631 313.443 96.7614 313.378C97.0625 313.31 97.3651 313.256 97.669 313.216C98.0668 313.165 98.3892 313.126 98.6364 313.101C98.8864 313.072 99.0682 313.026 99.1818 312.96C99.2983 312.895 99.3565 312.781 99.3565 312.619V312.585C99.3565 312.165 99.2415 311.838 99.0114 311.605C98.7841 311.372 98.4389 311.256 97.9759 311.256C97.4957 311.256 97.1193 311.361 96.8466 311.571C96.5739 311.781 96.3821 312.006 96.2713 312.244L95.3168 311.903C95.4872 311.506 95.7145 311.196 95.9986 310.974C96.2855 310.75 96.598 310.594 96.9361 310.506C97.277 310.415 97.6122 310.369 97.9418 310.369C98.152 310.369 98.3935 310.395 98.6662 310.446C98.9418 310.494 99.2074 310.595 99.4631 310.749C99.7216 310.902 99.9361 311.134 100.107 311.443C100.277 311.753 100.362 312.168 100.362 312.688V317H99.3565V316.114H99.3054C99.2372 316.256 99.1236 316.408 98.9645 316.57C98.8054 316.732 98.5938 316.869 98.3295 316.983C98.0653 317.097 97.7429 317.153 97.3622 317.153ZM97.5156 316.25C97.9134 316.25 98.2486 316.172 98.5213 316.016C98.7969 315.859 99.0043 315.658 99.1435 315.411C99.2855 315.163 99.3565 314.903 99.3565 314.631V313.71C99.3139 313.761 99.2202 313.808 99.0753 313.851C98.9332 313.891 98.7685 313.926 98.581 313.957C98.3963 313.986 98.2159 314.011 98.0398 314.034C97.8665 314.054 97.7259 314.071 97.6179 314.085C97.3565 314.119 97.1122 314.175 96.8849 314.251C96.6605 314.325 96.4787 314.437 96.3395 314.588C96.2031 314.736 96.1349 314.937 96.1349 315.193C96.1349 315.543 96.2642 315.807 96.5227 315.986C96.7841 316.162 97.1151 316.25 97.5156 316.25ZM103.203 313.062V317H102.198V310.455H103.169V311.477H103.255C103.408 311.145 103.641 310.878 103.953 310.676C104.266 310.472 104.669 310.369 105.164 310.369C105.607 310.369 105.995 310.46 106.327 310.642C106.659 310.821 106.918 311.094 107.103 311.46C107.287 311.824 107.38 312.284 107.38 312.841V317H106.374V312.909C106.374 312.395 106.24 311.994 105.973 311.707C105.706 311.418 105.34 311.273 104.874 311.273C104.553 311.273 104.266 311.342 104.013 311.482C103.763 311.621 103.566 311.824 103.421 312.091C103.276 312.358 103.203 312.682 103.203 313.062Z" fill="#697586"/>
<path d="M172.42 317V308.273H177.653V309.21H173.477V312.159H177.261V313.097H173.477V317H172.42ZM181.591 317.136C180.96 317.136 180.416 316.997 179.959 316.719C179.504 316.438 179.153 316.045 178.906 315.543C178.662 315.037 178.54 314.449 178.54 313.778C178.54 313.108 178.662 312.517 178.906 312.006C179.153 311.491 179.497 311.091 179.938 310.804C180.381 310.514 180.898 310.369 181.489 310.369C181.83 310.369 182.166 310.426 182.499 310.54C182.831 310.653 183.134 310.838 183.406 311.094C183.679 311.347 183.896 311.682 184.058 312.099C184.22 312.517 184.301 313.031 184.301 313.642V314.068H179.256V313.199H183.278C183.278 312.83 183.205 312.5 183.057 312.21C182.912 311.92 182.705 311.692 182.435 311.524C182.168 311.357 181.852 311.273 181.489 311.273C181.088 311.273 180.741 311.372 180.449 311.571C180.159 311.767 179.936 312.023 179.78 312.338C179.624 312.653 179.545 312.991 179.545 313.352V313.932C179.545 314.426 179.631 314.845 179.801 315.189C179.974 315.53 180.214 315.79 180.521 315.969C180.828 316.145 181.185 316.233 181.591 316.233C181.855 316.233 182.094 316.196 182.307 316.122C182.523 316.045 182.709 315.932 182.865 315.781C183.021 315.628 183.142 315.437 183.227 315.21L184.199 315.483C184.097 315.812 183.925 316.102 183.683 316.352C183.442 316.599 183.143 316.793 182.788 316.932C182.433 317.068 182.034 317.136 181.591 317.136ZM185.967 317V308.273H186.973V311.494H187.058C187.132 311.381 187.234 311.236 187.365 311.06C187.499 310.881 187.689 310.722 187.936 310.582C188.186 310.44 188.524 310.369 188.95 310.369C189.501 310.369 189.987 310.507 190.408 310.783C190.828 311.058 191.156 311.449 191.392 311.955C191.628 312.46 191.746 313.057 191.746 313.744C191.746 314.438 191.628 315.038 191.392 315.547C191.156 316.053 190.83 316.445 190.412 316.723C189.994 316.999 189.513 317.136 188.967 317.136C188.547 317.136 188.21 317.067 187.957 316.928C187.705 316.786 187.51 316.625 187.374 316.446C187.237 316.264 187.132 316.114 187.058 315.994H186.939V317H185.967ZM186.956 313.727C186.956 314.222 187.028 314.658 187.173 315.036C187.318 315.411 187.53 315.705 187.808 315.918C188.087 316.128 188.428 316.233 188.831 316.233C189.251 316.233 189.602 316.122 189.884 315.901C190.168 315.676 190.381 315.375 190.523 314.997C190.668 314.616 190.74 314.193 190.74 313.727C190.74 313.267 190.669 312.852 190.527 312.483C190.388 312.111 190.176 311.817 189.892 311.601C189.611 311.382 189.257 311.273 188.831 311.273C188.422 311.273 188.078 311.376 187.8 311.584C187.521 311.788 187.311 312.075 187.169 312.445C187.027 312.811 186.956 313.239 186.956 313.727Z" fill="#697586"/>
<path d="M255.784 308.273H257.045L260.011 315.517H260.114L263.08 308.273H264.341V317H263.352V310.369H263.267L260.54 317H259.585L256.858 310.369H256.773V317H255.784V308.273ZM268.25 317.153C267.835 317.153 267.458 317.075 267.12 316.919C266.782 316.76 266.514 316.531 266.315 316.233C266.116 315.932 266.017 315.568 266.017 315.142C266.017 314.767 266.091 314.463 266.238 314.23C266.386 313.994 266.583 313.81 266.831 313.676C267.078 313.543 267.351 313.443 267.649 313.378C267.95 313.31 268.253 313.256 268.556 313.216C268.954 313.165 269.277 313.126 269.524 313.101C269.774 313.072 269.956 313.026 270.069 312.96C270.186 312.895 270.244 312.781 270.244 312.619V312.585C270.244 312.165 270.129 311.838 269.899 311.605C269.672 311.372 269.326 311.256 268.863 311.256C268.383 311.256 268.007 311.361 267.734 311.571C267.461 311.781 267.27 312.006 267.159 312.244L266.204 311.903C266.375 311.506 266.602 311.196 266.886 310.974C267.173 310.75 267.485 310.594 267.824 310.506C268.164 310.415 268.5 310.369 268.829 310.369C269.039 310.369 269.281 310.395 269.554 310.446C269.829 310.494 270.095 310.595 270.351 310.749C270.609 310.902 270.824 311.134 270.994 311.443C271.164 311.753 271.25 312.168 271.25 312.688V317H270.244V316.114H270.193C270.125 316.256 270.011 316.408 269.852 316.57C269.693 316.732 269.481 316.869 269.217 316.983C268.953 317.097 268.63 317.153 268.25 317.153ZM268.403 316.25C268.801 316.25 269.136 316.172 269.409 316.016C269.684 315.859 269.892 315.658 270.031 315.411C270.173 315.163 270.244 314.903 270.244 314.631V313.71C270.201 313.761 270.108 313.808 269.963 313.851C269.821 313.891 269.656 313.926 269.468 313.957C269.284 313.986 269.103 314.011 268.927 314.034C268.754 314.054 268.613 314.071 268.505 314.085C268.244 314.119 268 314.175 267.772 314.251C267.548 314.325 267.366 314.437 267.227 314.588C267.091 314.736 267.022 314.937 267.022 315.193C267.022 315.543 267.152 315.807 267.41 315.986C267.672 316.162 268.003 316.25 268.403 316.25ZM273.085 317V310.455H274.057V311.443H274.125C274.244 311.119 274.46 310.857 274.773 310.655C275.085 310.453 275.438 310.352 275.83 310.352C275.903 310.352 275.996 310.354 276.107 310.357C276.217 310.359 276.301 310.364 276.358 310.369V311.392C276.324 311.384 276.246 311.371 276.124 311.354C276.004 311.334 275.878 311.324 275.744 311.324C275.426 311.324 275.142 311.391 274.892 311.524C274.645 311.655 274.449 311.837 274.304 312.07C274.162 312.3 274.091 312.562 274.091 312.858V317H273.085Z" fill="#697586"/>
<path d="M340.506 317H339.398L342.602 308.273H343.693L346.898 317H345.79L343.182 309.653H343.114L340.506 317ZM340.915 313.591H345.381V314.528H340.915V313.591ZM348.121 319.455V310.455H349.092V311.494H349.212C349.285 311.381 349.388 311.236 349.518 311.06C349.652 310.881 349.842 310.722 350.089 310.582C350.339 310.44 350.678 310.369 351.104 310.369C351.655 310.369 352.141 310.507 352.561 310.783C352.982 311.058 353.31 311.449 353.545 311.955C353.781 312.46 353.899 313.057 353.899 313.744C353.899 314.438 353.781 315.038 353.545 315.547C353.31 316.053 352.983 316.445 352.565 316.723C352.148 316.999 351.666 317.136 351.121 317.136C350.7 317.136 350.364 317.067 350.111 316.928C349.858 316.786 349.663 316.625 349.527 316.446C349.391 316.264 349.285 316.114 349.212 315.994H349.126V319.455H348.121ZM349.109 313.727C349.109 314.222 349.182 314.658 349.327 315.036C349.472 315.411 349.683 315.705 349.962 315.918C350.24 316.128 350.581 316.233 350.984 316.233C351.405 316.233 351.756 316.122 352.037 315.901C352.321 315.676 352.534 315.375 352.676 314.997C352.821 314.616 352.893 314.193 352.893 313.727C352.893 313.267 352.822 312.852 352.68 312.483C352.541 312.111 352.33 311.817 352.045 311.601C351.764 311.382 351.41 311.273 350.984 311.273C350.575 311.273 350.232 311.376 349.953 311.584C349.675 311.788 349.464 312.075 349.322 312.445C349.18 312.811 349.109 313.239 349.109 313.727ZM355.433 317V310.455H356.405V311.443H356.473C356.592 311.119 356.808 310.857 357.121 310.655C357.433 310.453 357.785 310.352 358.178 310.352C358.251 310.352 358.344 310.354 358.455 310.357C358.565 310.359 358.649 310.364 358.706 310.369V311.392C358.672 311.384 358.594 311.371 358.472 311.354C358.352 311.334 358.226 311.324 358.092 311.324C357.774 311.324 357.49 311.391 357.24 311.524C356.993 311.655 356.797 311.837 356.652 312.07C356.51 312.3 356.439 312.562 356.439 312.858V317H355.433Z" fill="#697586"/>
<path d="M422.511 308.273H423.773L426.739 315.517H426.841L429.807 308.273H431.068V317H430.08V310.369H429.994L427.267 317H426.312L423.585 310.369H423.5V317H422.511V308.273ZM434.977 317.153C434.562 317.153 434.186 317.075 433.848 316.919C433.51 316.76 433.241 316.531 433.042 316.233C432.843 315.932 432.744 315.568 432.744 315.142C432.744 314.767 432.818 314.463 432.966 314.23C433.113 313.994 433.311 313.81 433.558 313.676C433.805 313.543 434.078 313.443 434.376 313.378C434.677 313.31 434.98 313.256 435.284 313.216C435.681 313.165 436.004 313.126 436.251 313.101C436.501 313.072 436.683 313.026 436.797 312.96C436.913 312.895 436.971 312.781 436.971 312.619V312.585C436.971 312.165 436.856 311.838 436.626 311.605C436.399 311.372 436.054 311.256 435.591 311.256C435.11 311.256 434.734 311.361 434.461 311.571C434.189 311.781 433.997 312.006 433.886 312.244L432.931 311.903C433.102 311.506 433.329 311.196 433.613 310.974C433.9 310.75 434.213 310.594 434.551 310.506C434.892 310.415 435.227 310.369 435.556 310.369C435.767 310.369 436.008 310.395 436.281 310.446C436.556 310.494 436.822 310.595 437.078 310.749C437.336 310.902 437.551 311.134 437.721 311.443C437.892 311.753 437.977 312.168 437.977 312.688V317H436.971V316.114H436.92C436.852 316.256 436.738 316.408 436.579 316.57C436.42 316.732 436.208 316.869 435.944 316.983C435.68 317.097 435.358 317.153 434.977 317.153ZM435.13 316.25C435.528 316.25 435.863 316.172 436.136 316.016C436.412 315.859 436.619 315.658 436.758 315.411C436.9 315.163 436.971 314.903 436.971 314.631V313.71C436.929 313.761 436.835 313.808 436.69 313.851C436.548 313.891 436.383 313.926 436.196 313.957C436.011 313.986 435.831 314.011 435.654 314.034C435.481 314.054 435.341 314.071 435.233 314.085C434.971 314.119 434.727 314.175 434.5 314.251C434.275 314.325 434.093 314.437 433.954 314.588C433.818 314.736 433.75 314.937 433.75 315.193C433.75 315.543 433.879 315.807 434.137 315.986C434.399 316.162 434.73 316.25 435.13 316.25ZM440.226 319.455C440.055 319.455 439.903 319.44 439.77 319.412C439.636 319.386 439.544 319.361 439.493 319.335L439.749 318.449C439.993 318.511 440.209 318.534 440.396 318.517C440.584 318.5 440.75 318.416 440.895 318.266C441.043 318.118 441.178 317.878 441.3 317.545L441.487 317.034L439.067 310.455H440.158L441.964 315.67H442.033L443.839 310.455H444.93L442.152 317.955C442.027 318.293 441.872 318.572 441.687 318.794C441.503 319.018 441.288 319.185 441.044 319.293C440.803 319.401 440.53 319.455 440.226 319.455Z" fill="#697586"/>
<path d="M512.216 308.273H513.273V314.511C513.273 315.068 513.17 315.541 512.966 315.93C512.761 316.32 512.473 316.615 512.101 316.817C511.729 317.018 511.29 317.119 510.784 317.119C510.307 317.119 509.882 317.033 509.51 316.859C509.138 316.683 508.845 316.433 508.632 316.109C508.419 315.786 508.312 315.401 508.312 314.955H509.352C509.352 315.202 509.413 315.418 509.536 315.602C509.661 315.784 509.831 315.926 510.047 316.028C510.263 316.131 510.509 316.182 510.784 316.182C511.088 316.182 511.347 316.118 511.56 315.99C511.773 315.862 511.935 315.675 512.045 315.428C512.159 315.178 512.216 314.872 512.216 314.511V308.273ZM519.379 314.324V310.455H520.385V317H519.379V315.892H519.311C519.158 316.224 518.919 316.507 518.595 316.74C518.271 316.97 517.862 317.085 517.368 317.085C516.959 317.085 516.595 316.996 516.277 316.817C515.959 316.635 515.709 316.362 515.527 315.999C515.345 315.632 515.254 315.17 515.254 314.614V310.455H516.26V314.545C516.26 315.023 516.393 315.403 516.661 315.688C516.93 315.972 517.274 316.114 517.692 316.114C517.942 316.114 518.196 316.05 518.455 315.922C518.716 315.794 518.935 315.598 519.111 315.334C519.29 315.07 519.379 314.733 519.379 314.324ZM523.233 313.062V317H522.227V310.455H523.199V311.477H523.284C523.437 311.145 523.67 310.878 523.983 310.676C524.295 310.472 524.699 310.369 525.193 310.369C525.636 310.369 526.024 310.46 526.356 310.642C526.689 310.821 526.947 311.094 527.132 311.46C527.316 311.824 527.409 312.284 527.409 312.841V317H526.403V312.909C526.403 312.395 526.27 311.994 526.002 311.707C525.735 311.418 525.369 311.273 524.903 311.273C524.582 311.273 524.295 311.342 524.042 311.482C523.792 311.621 523.595 311.824 523.45 312.091C523.305 312.358 523.233 312.682 523.233 313.062Z" fill="#697586"/>
<path d="M595.58 308.273H596.636V314.511C596.636 315.068 596.534 315.541 596.33 315.93C596.125 316.32 595.837 316.615 595.464 316.817C595.092 317.018 594.653 317.119 594.148 317.119C593.67 317.119 593.246 317.033 592.874 316.859C592.501 316.683 592.209 316.433 591.996 316.109C591.783 315.786 591.676 315.401 591.676 314.955H592.716C592.716 315.202 592.777 315.418 592.899 315.602C593.024 315.784 593.195 315.926 593.411 316.028C593.626 316.131 593.872 316.182 594.148 316.182C594.452 316.182 594.71 316.118 594.923 315.99C595.136 315.862 595.298 315.675 595.409 315.428C595.523 315.178 595.58 314.872 595.58 314.511V308.273ZM602.743 314.324V310.455H603.749V317H602.743V315.892H602.675C602.521 316.224 602.283 316.507 601.959 316.74C601.635 316.97 601.226 317.085 600.732 317.085C600.322 317.085 599.959 316.996 599.641 316.817C599.322 316.635 599.072 316.362 598.891 315.999C598.709 315.632 598.618 315.17 598.618 314.614V310.455H599.624V314.545C599.624 315.023 599.757 315.403 600.024 315.688C600.294 315.972 600.638 316.114 601.055 316.114C601.305 316.114 601.56 316.05 601.818 315.922C602.08 315.794 602.298 315.598 602.474 315.334C602.653 315.07 602.743 314.733 602.743 314.324ZM606.596 308.273V317H605.591V308.273H606.596Z" fill="#697586"/>
<path d="M671.96 317H670.852L674.057 308.273H675.148L678.352 317H677.244L674.636 309.653H674.568L671.96 317ZM672.369 313.591H676.835V314.528H672.369V313.591ZM683.7 314.324V310.455H684.706V317H683.7V315.892H683.632C683.479 316.224 683.24 316.507 682.916 316.74C682.592 316.97 682.183 317.085 681.689 317.085C681.28 317.085 680.916 316.996 680.598 316.817C680.28 316.635 680.03 316.362 679.848 315.999C679.666 315.632 679.575 315.17 679.575 314.614V310.455H680.581V314.545C680.581 315.023 680.715 315.403 680.982 315.688C681.251 315.972 681.595 316.114 682.013 316.114C682.263 316.114 682.517 316.05 682.776 315.922C683.037 315.794 683.256 315.598 683.432 315.334C683.611 315.07 683.7 314.733 683.7 314.324ZM689.19 319.591C688.704 319.591 688.287 319.528 687.937 319.403C687.588 319.281 687.297 319.119 687.064 318.918C686.833 318.719 686.65 318.506 686.514 318.278L687.315 317.716C687.406 317.835 687.521 317.972 687.66 318.125C687.799 318.281 687.99 318.416 688.231 318.53C688.476 318.646 688.795 318.705 689.19 318.705C689.718 318.705 690.154 318.577 690.498 318.321C690.842 318.065 691.014 317.665 691.014 317.119V315.79H690.929C690.855 315.909 690.75 316.057 690.613 316.233C690.48 316.406 690.287 316.561 690.034 316.697C689.784 316.831 689.446 316.898 689.02 316.898C688.491 316.898 688.017 316.773 687.596 316.523C687.179 316.273 686.848 315.909 686.603 315.432C686.362 314.955 686.241 314.375 686.241 313.693C686.241 313.023 686.359 312.439 686.595 311.942C686.831 311.442 687.159 311.055 687.579 310.783C688 310.507 688.485 310.369 689.037 310.369C689.463 310.369 689.801 310.44 690.051 310.582C690.304 310.722 690.497 310.881 690.63 311.06C690.767 311.236 690.872 311.381 690.946 311.494H691.048V310.455H692.02V317.188C692.02 317.75 691.892 318.207 691.636 318.56C691.383 318.915 691.042 319.175 690.613 319.339C690.187 319.507 689.713 319.591 689.19 319.591ZM689.156 315.994C689.559 315.994 689.9 315.902 690.179 315.717C690.457 315.533 690.669 315.267 690.814 314.92C690.958 314.574 691.031 314.159 691.031 313.676C691.031 313.205 690.96 312.788 690.818 312.428C690.676 312.067 690.466 311.784 690.187 311.58C689.909 311.375 689.565 311.273 689.156 311.273C688.73 311.273 688.375 311.381 688.091 311.597C687.809 311.812 687.598 312.102 687.456 312.466C687.316 312.83 687.247 313.233 687.247 313.676C687.247 314.131 687.318 314.533 687.46 314.882C687.605 315.229 687.818 315.501 688.099 315.7C688.383 315.896 688.735 315.994 689.156 315.994Z" fill="#697586"/>
<path d="M761.739 310.455C761.688 310.023 761.48 309.688 761.117 309.449C760.753 309.21 760.307 309.091 759.778 309.091C759.392 309.091 759.054 309.153 758.764 309.278C758.477 309.403 758.253 309.575 758.091 309.794C757.932 310.013 757.852 310.261 757.852 310.54C757.852 310.773 757.908 310.973 758.019 311.141C758.132 311.305 758.277 311.443 758.453 311.554C758.629 311.662 758.814 311.751 759.007 311.822C759.2 311.891 759.378 311.946 759.54 311.989L760.426 312.227C760.653 312.287 760.906 312.369 761.185 312.474C761.466 312.58 761.734 312.723 761.99 312.905C762.249 313.084 762.462 313.314 762.629 313.595C762.797 313.876 762.881 314.222 762.881 314.631C762.881 315.102 762.757 315.528 762.51 315.909C762.266 316.29 761.908 316.592 761.436 316.817C760.967 317.041 760.398 317.153 759.727 317.153C759.102 317.153 758.561 317.053 758.104 316.851C757.649 316.649 757.291 316.368 757.03 316.007C756.771 315.646 756.625 315.227 756.591 314.75H757.682C757.71 315.08 757.821 315.352 758.014 315.568C758.21 315.781 758.457 315.94 758.756 316.045C759.057 316.148 759.381 316.199 759.727 316.199C760.131 316.199 760.493 316.134 760.814 316.003C761.135 315.869 761.389 315.685 761.577 315.449C761.764 315.21 761.858 314.932 761.858 314.614C761.858 314.324 761.777 314.088 761.615 313.906C761.453 313.724 761.24 313.577 760.976 313.463C760.712 313.349 760.426 313.25 760.119 313.165L759.046 312.858C758.364 312.662 757.824 312.382 757.426 312.018C757.028 311.655 756.83 311.179 756.83 310.591C756.83 310.102 756.962 309.676 757.226 309.312C757.493 308.946 757.851 308.662 758.3 308.46C758.752 308.256 759.256 308.153 759.813 308.153C760.375 308.153 760.875 308.254 761.313 308.456C761.75 308.655 762.097 308.928 762.352 309.274C762.611 309.621 762.747 310.014 762.761 310.455H761.739ZM767.226 317.136C766.596 317.136 766.052 316.997 765.594 316.719C765.14 316.438 764.789 316.045 764.542 315.543C764.297 315.037 764.175 314.449 764.175 313.778C764.175 313.108 764.297 312.517 764.542 312.006C764.789 311.491 765.133 311.091 765.573 310.804C766.016 310.514 766.533 310.369 767.124 310.369C767.465 310.369 767.802 310.426 768.134 310.54C768.466 310.653 768.769 310.838 769.042 311.094C769.314 311.347 769.532 311.682 769.694 312.099C769.856 312.517 769.937 313.031 769.937 313.642V314.068H764.891V313.199H768.914C768.914 312.83 768.84 312.5 768.692 312.21C768.547 311.92 768.34 311.692 768.07 311.524C767.803 311.357 767.488 311.273 767.124 311.273C766.723 311.273 766.377 311.372 766.084 311.571C765.794 311.767 765.571 312.023 765.415 312.338C765.259 312.653 765.181 312.991 765.181 313.352V313.932C765.181 314.426 765.266 314.845 765.437 315.189C765.61 315.53 765.85 315.79 766.157 315.969C766.464 316.145 766.82 316.233 767.226 316.233C767.491 316.233 767.729 316.196 767.942 316.122C768.158 316.045 768.344 315.932 768.5 315.781C768.657 315.628 768.777 315.437 768.863 315.21L769.834 315.483C769.732 315.812 769.56 316.102 769.319 316.352C769.077 316.599 768.779 316.793 768.424 316.932C768.069 317.068 767.669 317.136 767.226 317.136ZM771.466 319.455V310.455H772.438V311.494H772.557C772.631 311.381 772.733 311.236 772.864 311.06C772.998 310.881 773.188 310.722 773.435 310.582C773.685 310.44 774.023 310.369 774.449 310.369C775 310.369 775.486 310.507 775.907 310.783C776.327 311.058 776.655 311.449 776.891 311.955C777.127 312.46 777.245 313.057 777.245 313.744C777.245 314.438 777.127 315.038 776.891 315.547C776.655 316.053 776.329 316.445 775.911 316.723C775.493 316.999 775.012 317.136 774.466 317.136C774.046 317.136 773.709 317.067 773.456 316.928C773.204 316.786 773.009 316.625 772.873 316.446C772.736 316.264 772.631 316.114 772.557 315.994H772.472V319.455H771.466ZM772.455 313.727C772.455 314.222 772.527 314.658 772.672 315.036C772.817 315.411 773.029 315.705 773.307 315.918C773.586 316.128 773.927 316.233 774.33 316.233C774.75 316.233 775.101 316.122 775.383 315.901C775.667 315.676 775.88 315.375 776.022 314.997C776.167 314.616 776.239 314.193 776.239 313.727C776.239 313.267 776.168 312.852 776.026 312.483C775.887 312.111 775.675 311.817 775.391 311.601C775.11 311.382 774.756 311.273 774.33 311.273C773.921 311.273 773.577 311.376 773.299 311.584C773.02 311.788 772.81 312.075 772.668 312.445C772.526 312.811 772.455 313.239 772.455 313.727Z" fill="#697586"/>
<path d="M848.693 312.636C848.693 313.557 848.527 314.352 848.195 315.023C847.862 315.693 847.406 316.21 846.827 316.574C846.247 316.938 845.585 317.119 844.841 317.119C844.097 317.119 843.435 316.938 842.855 316.574C842.276 316.21 841.82 315.693 841.487 315.023C841.155 314.352 840.989 313.557 840.989 312.636C840.989 311.716 841.155 310.92 841.487 310.25C841.82 309.58 842.276 309.062 842.855 308.699C843.435 308.335 844.097 308.153 844.841 308.153C845.585 308.153 846.247 308.335 846.827 308.699C847.406 309.062 847.862 309.58 848.195 310.25C848.527 310.92 848.693 311.716 848.693 312.636ZM847.67 312.636C847.67 311.881 847.544 311.243 847.291 310.723C847.041 310.203 846.702 309.81 846.273 309.543C845.847 309.276 845.369 309.142 844.841 309.142C844.312 309.142 843.834 309.276 843.405 309.543C842.979 309.81 842.639 310.203 842.386 310.723C842.136 311.243 842.011 311.881 842.011 312.636C842.011 313.392 842.136 314.03 842.386 314.55C842.639 315.07 842.979 315.463 843.405 315.73C843.834 315.997 844.312 316.131 844.841 316.131C845.369 316.131 845.847 315.997 846.273 315.73C846.702 315.463 847.041 315.07 847.291 314.55C847.544 314.03 847.67 313.392 847.67 312.636ZM852.993 317.136C852.379 317.136 851.851 316.991 851.408 316.702C850.964 316.412 850.624 316.013 850.385 315.504C850.146 314.996 850.027 314.415 850.027 313.761C850.027 313.097 850.149 312.51 850.393 312.001C850.641 311.49 850.984 311.091 851.425 310.804C851.868 310.514 852.385 310.369 852.976 310.369C853.436 310.369 853.851 310.455 854.22 310.625C854.589 310.795 854.892 311.034 855.128 311.341C855.364 311.648 855.51 312.006 855.567 312.415H854.561C854.484 312.116 854.314 311.852 854.05 311.622C853.788 311.389 853.436 311.273 852.993 311.273C852.601 311.273 852.257 311.375 851.962 311.58C851.669 311.781 851.44 312.067 851.276 312.436C851.114 312.803 851.033 313.233 851.033 313.727C851.033 314.233 851.112 314.673 851.271 315.048C851.433 315.423 851.66 315.714 851.953 315.922C852.249 316.129 852.595 316.233 852.993 316.233C853.254 316.233 853.491 316.188 853.705 316.097C853.918 316.006 854.098 315.875 854.246 315.705C854.393 315.534 854.499 315.33 854.561 315.091H855.567C855.51 315.477 855.369 315.825 855.145 316.135C854.923 316.442 854.629 316.686 854.263 316.868C853.899 317.047 853.476 317.136 852.993 317.136ZM859.884 310.455V311.307H856.491V310.455H859.884ZM857.48 308.886H858.486V315.125C858.486 315.409 858.527 315.622 858.609 315.764C858.695 315.903 858.803 315.997 858.933 316.045C859.067 316.091 859.207 316.114 859.355 316.114C859.466 316.114 859.557 316.108 859.628 316.097C859.699 316.082 859.756 316.071 859.798 316.062L860.003 316.966C859.935 316.991 859.839 317.017 859.717 317.043C859.595 317.071 859.44 317.085 859.253 317.085C858.969 317.085 858.69 317.024 858.418 316.902C858.148 316.78 857.923 316.594 857.744 316.344C857.568 316.094 857.48 315.778 857.48 315.398V308.886Z" fill="#697586"/>
<path d="M931.614 308.273V317H930.591L925.835 310.148H925.75V317H924.693V308.273H925.716L930.489 315.142H930.574V308.273H931.614ZM936.251 317.136C935.66 317.136 935.142 316.996 934.696 316.714C934.253 316.433 933.906 316.04 933.656 315.534C933.409 315.028 933.285 314.437 933.285 313.761C933.285 313.08 933.409 312.484 933.656 311.976C933.906 311.467 934.253 311.072 934.696 310.791C935.142 310.51 935.66 310.369 936.251 310.369C936.842 310.369 937.359 310.51 937.802 310.791C938.248 311.072 938.595 311.467 938.842 311.976C939.092 312.484 939.217 313.08 939.217 313.761C939.217 314.437 939.092 315.028 938.842 315.534C938.595 316.04 938.248 316.433 937.802 316.714C937.359 316.996 936.842 317.136 936.251 317.136ZM936.251 316.233C936.7 316.233 937.069 316.118 937.359 315.888C937.649 315.658 937.863 315.355 938.003 314.98C938.142 314.605 938.211 314.199 938.211 313.761C938.211 313.324 938.142 312.916 938.003 312.538C937.863 312.161 937.649 311.855 937.359 311.622C937.069 311.389 936.7 311.273 936.251 311.273C935.802 311.273 935.433 311.389 935.143 311.622C934.853 311.855 934.639 312.161 934.5 312.538C934.361 312.916 934.291 313.324 934.291 313.761C934.291 314.199 934.361 314.605 934.5 314.98C934.639 315.355 934.853 315.658 935.143 315.888C935.433 316.118 935.802 316.233 936.251 316.233ZM945.87 310.455L943.45 317H942.427L940.007 310.455H941.097L942.904 315.67H942.972L944.779 310.455H945.87Z" fill="#697586"/>
<path d="M1012.75 317H1010.06V308.273H1012.87C1013.72 308.273 1014.44 308.447 1015.04 308.797C1015.64 309.143 1016.11 309.642 1016.43 310.293C1016.75 310.94 1016.91 311.716 1016.91 312.619C1016.91 313.528 1016.75 314.311 1016.42 314.967C1016.1 315.621 1015.63 316.124 1015.01 316.476C1014.39 316.825 1013.64 317 1012.75 317ZM1011.11 316.062H1012.68C1013.4 316.062 1014 315.923 1014.48 315.645C1014.95 315.366 1015.3 314.97 1015.54 314.456C1015.77 313.942 1015.89 313.33 1015.89 312.619C1015.89 311.915 1015.77 311.308 1015.54 310.8C1015.31 310.288 1014.97 309.896 1014.51 309.624C1014.05 309.348 1013.48 309.21 1012.8 309.21H1011.11V316.062ZM1021.29 317.136C1020.66 317.136 1020.12 316.997 1019.66 316.719C1019.2 316.438 1018.85 316.045 1018.61 315.543C1018.36 315.037 1018.24 314.449 1018.24 313.778C1018.24 313.108 1018.36 312.517 1018.61 312.006C1018.85 311.491 1019.2 311.091 1019.64 310.804C1020.08 310.514 1020.6 310.369 1021.19 310.369C1021.53 310.369 1021.87 310.426 1022.2 310.54C1022.53 310.653 1022.83 310.838 1023.11 311.094C1023.38 311.347 1023.6 311.682 1023.76 312.099C1023.92 312.517 1024 313.031 1024 313.642V314.068H1018.95V313.199H1022.98C1022.98 312.83 1022.9 312.5 1022.76 312.21C1022.61 311.92 1022.4 311.692 1022.13 311.524C1021.87 311.357 1021.55 311.273 1021.19 311.273C1020.79 311.273 1020.44 311.372 1020.15 311.571C1019.86 311.767 1019.63 312.023 1019.48 312.338C1019.32 312.653 1019.24 312.991 1019.24 313.352V313.932C1019.24 314.426 1019.33 314.845 1019.5 315.189C1019.67 315.53 1019.91 315.79 1020.22 315.969C1020.53 316.145 1020.88 316.233 1021.29 316.233C1021.55 316.233 1021.79 316.196 1022.01 316.122C1022.22 316.045 1022.41 315.932 1022.56 315.781C1022.72 315.628 1022.84 315.437 1022.93 315.21L1023.9 315.483C1023.8 315.812 1023.62 316.102 1023.38 316.352C1023.14 316.599 1022.84 316.793 1022.49 316.932C1022.13 317.068 1021.73 317.136 1021.29 317.136ZM1028.19 317.136C1027.58 317.136 1027.05 316.991 1026.6 316.702C1026.16 316.412 1025.82 316.013 1025.58 315.504C1025.34 314.996 1025.22 314.415 1025.22 313.761C1025.22 313.097 1025.35 312.51 1025.59 312.001C1025.84 311.49 1026.18 311.091 1026.62 310.804C1027.06 310.514 1027.58 310.369 1028.17 310.369C1028.63 310.369 1029.05 310.455 1029.42 310.625C1029.79 310.795 1030.09 311.034 1030.32 311.341C1030.56 311.648 1030.71 312.006 1030.76 312.415H1029.76C1029.68 312.116 1029.51 311.852 1029.25 311.622C1028.98 311.389 1028.63 311.273 1028.19 311.273C1027.8 311.273 1027.45 311.375 1027.16 311.58C1026.87 311.781 1026.64 312.067 1026.47 312.436C1026.31 312.803 1026.23 313.233 1026.23 313.727C1026.23 314.233 1026.31 314.673 1026.47 315.048C1026.63 315.423 1026.86 315.714 1027.15 315.922C1027.44 316.129 1027.79 316.233 1028.19 316.233C1028.45 316.233 1028.69 316.188 1028.9 316.097C1029.11 316.006 1029.29 315.875 1029.44 315.705C1029.59 315.534 1029.69 315.33 1029.76 315.091H1030.76C1030.71 315.477 1030.57 315.825 1030.34 316.135C1030.12 316.442 1029.83 316.686 1029.46 316.868C1029.1 317.047 1028.67 317.136 1028.19 317.136Z" fill="#697586"/>
</svg>
