<svg width="49" height="48" viewBox="0 0 49 48" fill="none" xmlns="http://www.w3.org/2000/svg">
<rect x="0.666687" width="48" height="48" rx="4" fill="#C7A1EC"/>
<g clip-path="url(#clip0_67_357)">
<path d="M14.6563 10.6562C14.5125 10.7938 14.5 10.8563 14.5 11.4062V12H13.9063C13.3563 12 13.2938 12.0125 13.1563 12.1562C12.95 12.3563 12.95 12.6437 13.1563 12.8438C13.2938 12.9875 13.3563 13 13.9063 13H14.5V13.5938C14.5 14.1437 14.5125 14.2062 14.6563 14.3438C14.75 14.4437 14.8813 14.5 15 14.5C15.1188 14.5 15.25 14.4437 15.3438 14.3438C15.4875 14.2062 15.5 14.1437 15.5 13.5938V13H16.0938C16.6438 13 16.7063 12.9875 16.8438 12.8438C17.05 12.6437 17.05 12.3563 16.8438 12.1562C16.7063 12.0125 16.6438 12 16.0938 12H15.5V11.4062C15.5 10.8563 15.4875 10.7938 15.3438 10.6562C15.25 10.5562 15.1188 10.5 15 10.5C14.8813 10.5 14.75 10.5562 14.6563 10.6562Z" fill="#6B19F1"/>
<path d="M34.6563 10.6562C34.5125 10.7938 34.5 10.8563 34.5 11.4062V12H33.9063C33.3563 12 33.2938 12.0125 33.1563 12.1562C32.95 12.3563 32.95 12.6437 33.1563 12.8438C33.2938 12.9875 33.3563 13 33.9063 13H34.5V13.5938C34.5 14.1437 34.5125 14.2062 34.6563 14.3438C34.75 14.4437 34.8813 14.5 35 14.5C35.1188 14.5 35.25 14.4437 35.3438 14.3438C35.4875 14.2062 35.5 14.1437 35.5 13.5938V13H36.0938C36.6438 13 36.7063 12.9875 36.8438 12.8438C36.9438 12.75 37 12.6187 37 12.5C37 12.3812 36.9438 12.25 36.8438 12.1562C36.7063 12.0125 36.6438 12 36.0938 12H35.5V11.4062C35.5 10.8563 35.4875 10.7938 35.3438 10.6562C35.25 10.5562 35.1188 10.5 35 10.5C34.8813 10.5 34.75 10.5562 34.6563 10.6562Z" fill="#6B19F1"/>
<path d="M24.7875 11.5752C24.6312 11.6314 24.4875 11.8877 23.6125 13.6752C23.0687 14.8002 22.6125 15.7252 22.6 15.7314C22.5875 15.7439 21.5625 15.9002 20.325 16.0814C18.9312 16.2877 18.0312 16.4502 17.9687 16.5002C17.7937 16.6439 17.7437 16.8564 17.8312 17.0502C17.8687 17.1502 18.6125 17.9127 19.4687 18.7502C20.4062 19.6627 21.0375 20.3252 21.05 20.4064C21.0625 20.4814 20.9125 21.4439 20.725 22.5439C20.5312 23.6439 20.375 24.6439 20.375 24.7627C20.375 25.0752 20.5562 25.2752 20.8187 25.2689C20.9687 25.2689 21.6375 24.9502 23.0187 24.2189L25 23.1752L26.7687 24.1002C27.7375 24.6064 28.6562 25.0877 28.8125 25.1689C29.2562 25.4064 29.625 25.2252 29.625 24.7752C29.625 24.6564 29.4687 23.6564 29.2812 22.5502C29.0875 21.4439 28.9375 20.4814 28.95 20.4064C28.9625 20.3252 29.6125 19.6502 30.5312 18.7502C31.3937 17.9127 32.1312 17.1502 32.1687 17.0564C32.2687 16.8377 32.1937 16.6064 31.9875 16.4814C31.9062 16.4252 30.9062 16.2564 29.6312 16.0689C28.4125 15.8939 27.4062 15.7439 27.4 15.7314C27.3875 15.7252 26.9312 14.8002 26.3875 13.6814C25.4562 11.7752 25.375 11.6377 25.1875 11.5689C25.075 11.5314 24.9812 11.5002 24.975 11.5064C24.9687 11.5064 24.8875 11.5377 24.7875 11.5752ZM25.8625 14.8689C26.4 15.9814 26.725 16.5752 26.8125 16.6252C26.8875 16.6627 27.7375 16.8127 28.7062 16.9502C29.675 17.0877 30.5062 17.2064 30.55 17.2252C30.5937 17.2377 30.0312 17.8377 29.25 18.6002C28.15 19.6814 27.875 19.9877 27.875 20.1189C27.875 20.2064 28.0125 21.0814 28.1812 22.0627C28.35 23.0439 28.4812 23.8502 28.475 23.8502C28.475 23.8564 27.725 23.4689 26.8125 22.9939C25.9 22.5189 25.0875 22.1252 25 22.1252C24.9125 22.1252 24.1 22.5189 23.1875 22.9939C22.275 23.4752 21.525 23.8627 21.525 23.8564C21.5187 23.8502 21.65 23.0439 21.8187 22.0627C21.9875 21.0814 22.125 20.2064 22.125 20.1189C22.125 19.9877 21.85 19.6814 20.75 18.6002C19.9937 17.8564 19.4062 17.2377 19.45 17.2252C19.4937 17.2064 20.325 17.0877 21.2937 16.9502C22.2625 16.8127 23.1125 16.6627 23.1875 16.6252C23.275 16.5752 23.6 15.9814 24.1375 14.8689C24.5875 13.9439 24.975 13.1877 25 13.1877C25.025 13.1877 25.4125 13.9439 25.8625 14.8689Z" fill="#6B19F1"/>
<path d="M11.6563 18.6562C11.5125 18.7938 11.5 18.8563 11.5 19.4062V20H10.9063C10.3563 20 10.2938 20.0125 10.1563 20.1562C9.95002 20.3563 9.95002 20.6437 10.1563 20.8438C10.2938 20.9875 10.3563 21 10.9063 21H11.5V21.5938C11.5 22.1437 11.5125 22.2062 11.6563 22.3438C11.75 22.4437 11.8813 22.5 12 22.5C12.1188 22.5 12.25 22.4437 12.3438 22.3438C12.4875 22.2062 12.5 22.1437 12.5 21.5938V21H13.0938C13.6438 21 13.7063 20.9875 13.8438 20.8438C14.05 20.6437 14.05 20.3563 13.8438 20.1562C13.7063 20.0125 13.6438 20 13.0938 20H12.5V19.4062C12.5 18.8563 12.4875 18.7938 12.3438 18.6562C12.25 18.5562 12.1188 18.5 12 18.5C11.8813 18.5 11.75 18.5562 11.6563 18.6562Z" fill="#6B19F1"/>
<path d="M37.6563 18.6562C37.5125 18.7938 37.5 18.8563 37.5 19.4062V20H36.9063C36.3563 20 36.2938 20.0125 36.1563 20.1562C35.95 20.3563 35.95 20.6437 36.1563 20.8438C36.2938 20.9875 36.3563 21 36.9063 21H37.5V21.5938C37.5 22.1437 37.5125 22.2062 37.6563 22.3438C37.75 22.4437 37.8813 22.5 38 22.5C38.1188 22.5 38.25 22.4437 38.3438 22.3438C38.4875 22.2062 38.5 22.1437 38.5 21.5938V21H39.0938C39.6438 21 39.7063 20.9875 39.8438 20.8438C39.9438 20.75 40 20.6187 40 20.5C40 20.3812 39.9438 20.25 39.8438 20.1562C39.7063 20.0125 39.6438 20 39.0938 20H38.5V19.4062C38.5 18.8563 38.4875 18.7938 38.3438 18.6562C38.25 18.5562 38.1188 18.5 38 18.5C37.8813 18.5 37.75 18.5562 37.6563 18.6562Z" fill="#6B19F1"/>
<path d="M15.9375 22.8125C15.8875 22.8438 15.3812 23.7875 14.8125 24.9188L13.7812 26.9688L11.5312 27.2938C9.38125 27.6063 9.275 27.6313 9.14375 27.7813C8.84375 28.125 8.85625 28.15 10.6625 29.9125L12.325 31.5438L11.9375 33.8C11.575 35.9125 11.5562 36.0625 11.65 36.2375C11.75 36.4313 11.8625 36.5 12.075 36.5C12.1437 36.5 13.0625 36.0438 14.1125 35.4938C15.1687 34.9375 16.075 34.4625 16.1312 34.4313C16.2 34.3938 16.8125 34.6875 18.2437 35.4438C19.35 36.025 20.3312 36.5 20.4125 36.5C20.6062 36.5 20.875 36.2375 20.875 36.05C20.875 35.9688 20.7062 34.9188 20.5 33.7188L20.1187 31.5313L20.4812 31.1938C20.6812 31.0063 21.425 30.275 22.1437 29.575C23.2875 28.4438 23.4375 28.2688 23.4375 28.0938C23.4375 27.9688 23.3875 27.85 23.2875 27.7563C23.1562 27.6313 22.8875 27.5813 20.9 27.2938L18.6562 26.9688L17.65 24.9438C17.0937 23.8313 16.5937 22.8813 16.5312 22.8313C16.4 22.7375 16.075 22.725 15.9375 22.8125ZM17.0875 26.0813C17.8125 27.5625 17.9437 27.8 18.1 27.8563C18.2 27.9 19 28.0313 19.875 28.1563C20.75 28.2813 21.5562 28.3938 21.6625 28.4125C21.85 28.45 21.8375 28.4688 20.5125 29.7688C19.775 30.5 19.15 31.15 19.125 31.2188C19.0937 31.3 19.1937 32.025 19.3812 33.125C19.55 34.1063 19.6812 34.9375 19.675 34.9813C19.6625 35.0188 18.95 34.6813 18 34.1813C17.0875 33.7063 16.2875 33.3125 16.2187 33.3125C16.15 33.3125 15.35 33.7063 14.4375 34.1875C13.5312 34.6625 12.775 35.05 12.7625 35.0375C12.7562 35.025 12.8875 34.1813 13.0625 33.1625C13.3187 31.6688 13.3625 31.2875 13.3062 31.175C13.2687 31.1 12.6437 30.4625 11.925 29.7563C10.7312 28.5875 10.625 28.4688 10.7625 28.4313C10.8375 28.4063 11.6375 28.2813 12.5312 28.1563C13.425 28.0313 14.2375 27.9 14.3312 27.8625C14.4812 27.8063 14.6375 27.5438 15.3625 26.0813C15.8312 25.1438 16.225 24.375 16.2375 24.375C16.2437 24.375 16.625 25.1438 17.0875 26.0813Z" fill="#6B19F1"/>
<path d="M33.4688 22.8375C33.4062 22.8812 32.9 23.8313 32.35 24.9437L31.3438 26.9688L29.1 27.2937C27.1125 27.5813 26.8438 27.6312 26.7125 27.7562C26.6188 27.8438 26.5625 27.9688 26.5625 28.0938C26.5625 28.2625 26.7188 28.4437 27.8313 29.5375C28.525 30.225 29.2687 30.9562 29.4875 31.1625L29.8813 31.5312L29.5 33.7188C29.2938 34.9187 29.125 35.9688 29.125 36.05C29.125 36.2375 29.3937 36.5 29.5875 36.5C29.675 36.5 30.6375 36.0312 31.7313 35.4562C32.8187 34.8875 33.7438 34.4188 33.7812 34.4188C33.8187 34.4188 34.7438 34.8875 35.8313 35.4562C36.9187 36.0312 37.8688 36.5 37.9438 36.5C38.1438 36.5 38.2875 36.4 38.3688 36.2C38.4313 36.0437 38.3875 35.6875 38.0625 33.7812L37.675 31.5437L39.3375 29.9125C41.1438 28.1438 41.1562 28.125 40.8625 27.7812C40.725 27.625 40.625 27.6062 38.4688 27.2937L36.2188 26.9688L35.1875 24.9187C34.6188 23.7875 34.1125 22.8438 34.0625 22.8125C33.925 22.725 33.6 22.7375 33.4688 22.8375ZM35.6687 27.8625C35.7625 27.9 36.5625 28.0312 37.4375 28.1562C38.3125 28.275 39.1125 28.4 39.2125 28.425C39.3875 28.4688 39.3688 28.4937 38.0813 29.7562C37.3562 30.4625 36.7312 31.1 36.6938 31.175C36.6313 31.2875 36.6813 31.6687 36.9375 33.1625C37.1125 34.1812 37.2438 35.025 37.2375 35.0375C37.225 35.0437 36.4688 34.6625 35.5625 34.1875C34.65 33.7062 33.85 33.3125 33.7812 33.3125C33.7125 33.3125 32.9125 33.7062 32 34.1875C31.025 34.6938 30.3375 35.025 30.325 34.9812C30.3188 34.9375 30.45 34.1063 30.6188 33.125C30.8063 32.0375 30.9062 31.3 30.875 31.2188C30.85 31.15 30.225 30.5 29.4875 29.7687C28.1625 28.4688 28.15 28.45 28.3375 28.4125C28.4438 28.3938 29.25 28.2812 30.125 28.1562C31 28.0312 31.8 27.9 31.9 27.8625C32.0563 27.8 32.1875 27.5625 32.9188 26.0687L33.7625 24.3438L34.625 26.0687C35.3625 27.5375 35.5188 27.8062 35.6687 27.8625Z" fill="#6B19F1"/>
<path d="M24.6563 33.6563C24.5125 33.7938 24.5 33.8563 24.5 34.4063V35.0001H23.9063C23.3563 35.0001 23.2938 35.0126 23.1563 35.1563C22.95 35.3563 22.95 35.6438 23.1563 35.8438C23.2938 35.9876 23.3563 36.0001 23.9063 36.0001H24.5V36.5938C24.5 37.1438 24.5125 37.2063 24.6563 37.3438C24.8563 37.5501 25.1438 37.5501 25.3438 37.3438C25.4875 37.2063 25.5 37.1438 25.5 36.5938V36.0001H26.0938C26.6438 36.0001 26.7063 35.9876 26.8438 35.8438C26.9438 35.7501 27 35.6188 27 35.5001C27 35.3813 26.9438 35.2501 26.8438 35.1563C26.7063 35.0126 26.6438 35.0001 26.0938 35.0001H25.5V34.4063C25.5 33.8563 25.4875 33.7938 25.3438 33.6563C25.25 33.5563 25.1188 33.5001 25 33.5001C24.8813 33.5001 24.75 33.5563 24.6563 33.6563Z" fill="#6B19F1"/>
</g>
<defs>
<clipPath id="clip0_67_357">
<rect width="32" height="32" fill="white" transform="translate(9 8)"/>
</clipPath>
</defs>
</svg>
