<svg width="48" height="48" viewBox="0 0 48 48" fill="none" xmlns="http://www.w3.org/2000/svg">
<rect width="48" height="48" rx="4" fill="#EFB2B2"/>
<path d="M32.9297 13.2981C31.2829 15.2197 30.3111 16.1059 28.7978 17.0549C26.9951 18.1844 24.9848 18.8902 22.7667 19.1569C22.3587 19.2118 22.0101 19.2589 21.9952 19.2746C21.973 19.3059 25.3186 27.8628 25.3928 27.9569C25.4373 28.004 29.1464 27.4942 30.3333 27.2746C32.2918 26.9138 34.4282 26.0118 36.1196 24.851C37.3362 24.0118 38.0261 23.3844 40.0735 21.2432L42.0913 19.1177L38.2189 15.7059C36.0899 13.8314 34.2724 12.2314 34.1834 12.1608C34.0202 12.0197 34.0128 12.0275 32.9297 13.2981ZM37.2991 16.5295L40.3257 19.1961L38.7011 20.8902C36.6314 23.055 35.6151 23.8706 33.8199 24.7726C32.811 25.2824 31.4683 25.7608 30.4446 25.9726C29.2725 26.2157 26.2088 26.6314 26.142 26.553C26.0753 26.4824 23.694 20.4432 23.694 20.3491C23.694 20.3177 24.0723 20.2157 24.5323 20.1216C25.7563 19.8706 27.1212 19.3687 28.3601 18.7177C30.2221 17.7451 31.498 16.7255 33.0633 14.9844C33.6048 14.3883 34.0499 13.8706 34.0647 13.8236C34.0796 13.7765 34.1315 13.7687 34.1834 13.8C34.2353 13.8393 35.6374 15.0628 37.2991 16.5295Z" fill="#F93939"/>
<path d="M33.2561 16.6158L32.4846 17.4315L32.9149 17.8785L33.3377 18.3334L33.7309 17.9178L34.1315 17.5021L35.4445 18.655L36.7575 19.8158L36.4015 20.1923L36.0454 20.5687L36.4756 21.0236L36.8985 21.4707L37.7145 20.608L38.5305 19.7452L36.4385 17.9021C35.2887 16.8903 34.2724 15.9962 34.1908 15.9256C34.035 15.8001 34.0128 15.8158 33.2561 16.6158Z" fill="#F93939"/>
<path d="M31.1122 19.2589C30.7487 19.3844 30.1256 20.0589 30.0143 20.4589C29.8066 21.1961 29.955 21.7844 30.4817 22.3334C30.86 22.7412 31.2384 22.9216 31.7057 22.9216C32.6256 22.9216 33.4861 22.0118 33.4861 21.0393C33.4861 20.5452 33.3155 20.1452 32.9297 19.7452C32.4104 19.1883 31.8021 19.0314 31.1122 19.2589ZM32.1137 20.6079C32.2324 20.7256 32.2992 20.8903 32.2992 21.0393C32.2992 21.1883 32.2324 21.353 32.1137 21.4707C32.0024 21.5961 31.8466 21.6667 31.7057 21.6667C31.5648 21.6667 31.409 21.5961 31.2977 21.4707C31.179 21.353 31.1122 21.1883 31.1122 21.0393C31.1122 20.8903 31.179 20.7256 31.2977 20.6079C31.409 20.4824 31.5648 20.4118 31.7057 20.4118C31.8466 20.4118 32.0024 20.4824 32.1137 20.6079Z" fill="#F93939"/>
<path d="M26.4165 20.9295C25.9269 21.1884 25.6227 21.4001 25.645 21.455C26.1124 22.7099 27.1954 25.557 27.2103 25.5648C27.2622 25.6276 29.4802 24.7727 29.4802 24.7021C29.4802 24.4982 29.1538 23.6276 29.0722 23.6276C29.0277 23.6276 28.7384 23.7138 28.4417 23.8236C28.145 23.9335 27.8927 24.0119 27.8853 23.9962C27.8779 23.9884 27.6999 23.5335 27.4921 22.9766L27.1138 21.9805L27.4254 21.8158C27.596 21.7217 27.7518 21.6354 27.7666 21.6197C27.8111 21.5805 27.3141 20.4903 27.2622 20.4982C27.2399 20.4982 26.8542 20.6942 26.4165 20.9295Z" fill="#F93939"/>
<path d="M18.0932 12.5844C15.801 13.2824 15.3188 13.3765 14.1245 13.3216C10.9569 13.1726 10.7121 13.1726 9.89605 13.353C8.86491 13.5726 7.85603 14.004 6.81747 14.655C6.14241 15.0785 5.98663 15.2118 6.03856 15.3059C6.51333 16.2471 10.1483 22.4903 10.215 22.4824C10.267 22.4746 10.5711 22.2706 10.8975 22.0275C12.2699 20.9844 13.5532 20.5295 15.4968 20.4118C17.4849 20.2942 18.3083 20.0432 20.4448 18.9138L21.7653 18.2157L21.5501 17.6118C20.9418 15.8863 19.614 12.1452 19.5917 12.1373C19.5843 12.1295 18.9092 12.3256 18.0932 12.5844ZM19.3914 15.0785C19.6585 15.8314 19.97 16.7099 20.0813 17.0236L20.2816 17.5961L19.2208 18.1373C17.841 18.851 17.0843 19.055 15.4968 19.1569C14.844 19.1961 14.0429 19.2824 13.7239 19.353C12.7298 19.5726 11.5948 20.0432 10.8307 20.5452C10.675 20.655 10.5192 20.7099 10.4895 20.6706C10.4524 20.6393 9.79219 19.4863 9.01328 18.1138C7.61123 15.6432 7.60381 15.6275 7.76701 15.5099C8.07858 15.2981 8.93168 14.9216 9.57706 14.7099C10.1705 14.5216 10.3411 14.5059 11.491 14.4981C12.1883 14.4981 13.2862 14.5295 13.939 14.5608C15.3485 14.6393 15.8677 14.5608 17.5739 14.0275C18.1897 13.8393 18.7386 13.6903 18.798 13.6981C18.8647 13.7059 19.0798 14.2079 19.3914 15.0785Z" fill="#F93939"/>
<path d="M13.3084 17.2746V17.9021H14.1986H15.0888V17.2746V16.6472H14.1986H13.3084V17.2746Z" fill="#F93939"/>
<path d="M15.1259 21.4785C14.5918 21.9491 13.4271 22.7099 12.6408 23.1099C11.4094 23.7295 10.6453 23.9726 8.24177 24.4824C7.06227 24.7412 6.08306 24.9609 6.0608 24.9844C6.03113 25.0236 8.08599 31.6903 8.16017 31.7765C8.17501 31.7922 8.4569 31.7452 8.79072 31.6667C9.11712 31.5962 9.41385 31.5648 9.45095 31.5962C9.48062 31.6354 9.71059 32.4746 9.96281 33.4707C10.215 34.4589 10.4376 35.3295 10.4598 35.3922C10.4895 35.502 10.6824 35.502 12.3292 35.3452C13.3381 35.2432 14.5176 35.0942 14.9553 35.0001C16.7134 34.6393 18.4048 33.8471 19.8217 32.7256C20.4374 32.2393 24.1391 28.7491 24.1391 28.6471C24.1391 28.6001 19.4582 21.4863 19.3469 21.353C19.3246 21.3373 18.6496 22.0197 17.8484 22.8667L16.387 24.4118L15.9122 22.906C15.6526 22.0746 15.4226 21.3687 15.393 21.3373C15.3707 21.3138 15.252 21.3765 15.1259 21.4785ZM15.4597 25.4785C15.8306 26.6393 16.1274 27.6197 16.1274 27.6667C16.1274 27.8942 14.0058 29.0393 12.8559 29.4314C12.2921 29.6275 8.99843 30.3962 8.96134 30.3491C8.902 30.2628 7.58896 25.9648 7.61122 25.9334C7.63347 25.9177 8.30854 25.7609 9.12454 25.5805C11.3055 25.1099 12.9153 24.4981 14.3099 23.604C14.5473 23.4471 14.7624 23.3295 14.7698 23.3452C14.7847 23.3609 15.0962 24.3177 15.4597 25.4785ZM20.8676 25.8314C21.7801 27.2197 22.5293 28.3883 22.5367 28.4432C22.5516 28.5922 19.4137 31.5177 18.6941 32.0275C17.4033 32.9452 15.9642 33.5569 14.4583 33.8236C13.3826 34.0118 11.4613 34.1765 11.3871 34.0903C11.3278 34.0118 10.623 31.306 10.6527 31.2746C10.6675 31.2667 11.0607 31.1805 11.5281 31.0863C11.9954 30.9844 12.7817 30.7648 13.2639 30.6001C13.7535 30.4354 14.1541 30.302 14.1615 30.3099C14.169 30.3256 14.2431 30.4589 14.3322 30.6158C14.5176 30.9373 14.8143 31.204 15.3114 31.4785C15.5858 31.6275 15.7565 31.6589 16.2757 31.6589C16.8544 31.6667 16.9434 31.6432 17.3736 31.4001C17.8558 31.1177 18.1451 30.7962 18.4122 30.2393C18.9241 29.1805 18.4938 27.6589 17.5368 27.0942C17.1882 26.8981 17.1585 26.8432 16.9879 26.3099L16.8024 25.7373L17.9671 24.5295C18.6051 23.8628 19.1466 23.3216 19.1689 23.3216C19.1911 23.3216 19.9552 24.4511 20.8676 25.8314ZM17.3811 28.7334C17.7891 29.9805 16.4241 30.9922 15.4968 30.1216C15.3559 29.9962 15.2372 29.855 15.2372 29.8236C15.2372 29.7922 15.5265 29.5883 15.89 29.3687C16.2461 29.1491 16.6689 28.8667 16.8321 28.7334C17.2104 28.4354 17.2772 28.4354 17.3811 28.7334Z" fill="#F93939"/>
<path d="M11.5503 26.4275C11.1275 26.5765 10.7863 26.7412 10.7863 26.7961C10.7863 27.0157 11.1052 27.8628 11.1868 27.8628C11.2907 27.8628 12.7966 27.3373 12.8411 27.2824C12.8634 27.2667 12.7966 27 12.7076 26.6942C12.5889 26.3099 12.4999 26.1373 12.4257 26.1451C12.3589 26.1451 11.9658 26.2706 11.5503 26.4275Z" fill="#F93939"/>
<path d="M39.2353 27.5648C35.9045 28.7255 33.3674 29.0157 30.1701 28.6001C29.6731 28.5295 29.2132 28.4903 29.1538 28.5059C29.0722 28.5216 29.3096 29.2667 30.1479 31.6275L31.2458 34.7255L31.8986 34.9059C33.3303 35.2903 34.5024 35.4236 36.4534 35.4236C37.9667 35.4236 38.4489 35.3922 39.3465 35.2432C40.3406 35.0863 41.7575 34.7491 41.8465 34.6628C41.8761 34.6314 40.6002 27.6981 40.4889 27.2902C40.4667 27.2197 40.4296 27.1569 40.3999 27.1648C40.3702 27.1726 39.851 27.3452 39.2353 27.5648ZM39.6062 28.9765C39.6284 29.0785 39.8435 30.1922 40.0809 31.4471C40.4741 33.5412 40.5038 33.7452 40.3851 33.7844C40.3109 33.8079 39.8065 33.8942 39.2649 33.9804C37.9148 34.1922 36.2012 34.2628 34.9698 34.1452C33.7161 34.0275 32.2918 33.7687 32.1805 33.6432C32.136 33.5961 31.8096 32.7491 31.4683 31.7765L30.8452 30.004H32.5514C34.8956 30.004 36.7576 29.7216 38.6047 29.0863C39.5542 28.7648 39.5542 28.7648 39.6062 28.9765Z" fill="#F93939"/>
<path d="M35.2665 32.3335V32.9609H36.1567H37.0469V32.3335V31.706H36.1567H35.2665V32.3335Z" fill="#F93939"/>
</svg>
