<svg width="153" height="54" viewBox="0 0 153 54" fill="none" xmlns="http://www.w3.org/2000/svg">
<path fill-rule="evenodd" clip-rule="evenodd" d="M48.9999 25.4373C48.9953 22.5131 48.0383 19.6699 46.2739 17.338C44.5094 15.006 42.0335 13.3122 39.2206 12.5127C36.4078 11.7133 33.4111 11.8517 30.6839 12.9071C27.9567 13.9624 25.6475 15.8773 24.1055 18.3619L25.5032 19.7596C25.8934 19.0671 26.354 18.4167 26.8779 17.8189L26.8619 17.8029L27.3522 17.3125C28.9634 15.692 31.0194 14.5863 33.2597 14.1354C35.4999 13.6846 37.8236 13.909 39.9362 14.7801C42.0488 15.6513 43.8553 17.13 45.1266 19.0289C46.398 20.9278 47.077 23.1613 47.0776 25.4465C47.0776 25.6756 47.0776 25.9047 47.057 26.1339V26.2301V26.3011V26.4432C47.057 26.489 47.057 26.5257 47.0455 26.5669L47.0249 26.7525C47.0249 26.7892 47.0249 26.8281 47.0111 26.8693C47.0019 26.8971 46.9988 26.9364 46.9958 26.9766V26.9766C46.9943 26.996 46.9927 27.0157 46.9905 27.0343L46.9768 27.126C46.9768 27.1626 46.969 27.2026 46.9612 27.2429C46.9578 27.2605 46.9543 27.2781 46.9516 27.2955C46.9471 27.3235 46.9442 27.3394 46.942 27.3522L46.942 27.3522C46.9396 27.3655 46.9379 27.3753 46.9355 27.3917C46.9341 27.4014 46.9336 27.4104 46.9331 27.4191C46.9318 27.4394 46.9307 27.458 46.9195 27.4788C46.9087 27.4988 46.9062 27.527 46.9036 27.5559V27.556C46.9024 27.5701 46.9011 27.5844 46.8989 27.598C46.8954 27.6186 46.8914 27.6375 46.8874 27.6564C46.8834 27.6753 46.8794 27.6942 46.8759 27.7148L46.8484 27.85C46.782 28.1639 46.6995 28.4824 46.6193 28.7871C46.6147 28.8016 46.6104 28.8162 46.6061 28.8307C46.5974 28.8597 46.5888 28.8887 46.5781 28.9177C46.5679 28.9453 46.5624 28.9655 46.5568 28.9859C46.5535 28.9977 46.5502 29.0097 46.546 29.0231C46.4796 29.2248 46.4062 29.4287 46.3306 29.6257L46.2963 29.7082L46.2298 29.8182C46.2138 29.8548 46.1954 29.8984 46.1794 29.9396L46.1336 30.0427V30.0588L46.0717 30.2008C46.0557 30.2375 46.0396 30.2719 46.0213 30.3062C45.7279 30.9387 45.3775 31.543 44.9742 32.1117L44.9101 32.2011L44.7703 32.389L44.7565 32.4074C44.7396 32.4303 44.7213 32.455 44.7016 32.4783L44.5503 32.6731L44.4587 32.7831L44.3739 32.8862L44.28 32.9961C44.2677 33.0099 44.2558 33.0236 44.2438 33.0374C44.2199 33.0649 44.1959 33.0924 44.17 33.1199L45.5264 34.4763C47.7713 32.0021 49.0102 28.7781 48.9999 25.4373ZM46.1565 35.5922C46.6797 34.9938 47.1403 34.3435 47.5313 33.6515L48.8877 35.0766C47.9026 36.6648 46.5975 38.0303 45.0555 39.0861C43.5135 40.142 41.7685 40.865 39.9316 41.2091C38.0948 41.5532 36.2063 41.5109 34.3867 41.0848C32.5671 40.6587 30.8562 39.8582 29.3631 38.7344C27.87 37.6105 26.6274 36.1879 25.7145 34.5572C24.8016 32.9265 24.2384 31.1235 24.0609 29.2631C23.8833 27.4028 24.0953 25.5258 24.6833 23.7519C25.2713 21.978 26.2224 20.346 27.476 18.96L28.8324 20.3164L28.7224 20.4401L28.7223 20.4402C28.6903 20.4746 28.6582 20.5089 28.6285 20.5478C28.6108 20.571 28.5923 20.5925 28.5739 20.6138L28.5739 20.6138L28.5739 20.6139C28.5614 20.6284 28.5489 20.6429 28.5368 20.6578L28.5093 20.6921C28.4885 20.7182 28.4674 20.7447 28.4452 20.7701L28.2939 20.9625C28.2687 20.9923 28.2458 21.0244 28.2252 21.0542L28.0877 21.2398L28.0213 21.3291C27.6185 21.8982 27.2681 22.5025 26.9742 23.1346L26.9261 23.24C26.9032 23.2881 26.8825 23.3362 26.8619 23.3844L26.8619 23.3844V23.4004C26.857 23.4109 26.8511 23.4213 26.8452 23.4317C26.8317 23.4555 26.8184 23.4789 26.8184 23.5012L26.7657 23.625C26.7542 23.657 26.7405 23.6914 26.729 23.7189C26.7257 23.7269 26.7216 23.7351 26.7174 23.7434C26.7073 23.7636 26.6969 23.7842 26.6969 23.8037C26.619 24.0007 26.5457 24.2046 26.4816 24.404C26.4732 24.4262 26.4674 24.445 26.4611 24.4656L26.4611 24.4656C26.457 24.479 26.4526 24.4931 26.4472 24.5094C26.4431 24.5215 26.4383 24.5337 26.4335 24.5457C26.4219 24.5747 26.4105 24.6033 26.4105 24.6308C26.328 24.9378 26.2456 25.254 26.1814 25.5679C26.17 25.6138 26.1585 25.6665 26.1516 25.7054C26.1484 25.7235 26.1447 25.7406 26.141 25.7578L26.141 25.7579L26.141 25.7579C26.1367 25.7778 26.1324 25.7979 26.1287 25.82C26.1264 25.8336 26.1252 25.8486 26.1239 25.8634C26.1213 25.8934 26.1188 25.923 26.1081 25.9414C26.1001 25.9552 26.1001 25.9683 26.1001 25.9821C26.1001 25.9958 26.1001 26.0102 26.092 26.0262C26.0824 26.0455 26.0819 26.0565 26.081 26.0746C26.0804 26.0867 26.0797 26.1019 26.076 26.1247C26.0731 26.1426 26.0696 26.1605 26.0661 26.1783C26.0584 26.2173 26.0508 26.2557 26.0508 26.292L26.0371 26.3859C26.0347 26.4046 26.0316 26.4236 26.0285 26.4424C26.0224 26.4791 26.0164 26.5153 26.0164 26.5486C26.0073 26.5898 26.0027 26.6288 26.0027 26.6654L25.9821 26.851V26.9748L25.9683 27.1168C25.9695 27.1374 25.9695 27.1581 25.9683 27.1787V27.2749C25.9477 27.504 25.9477 27.7332 25.9477 27.9623V27.9623C25.9454 30.2496 26.6229 32.486 27.8942 34.3874C29.1656 36.2888 30.9733 37.7695 33.0879 38.6414C35.2025 39.5133 37.5285 39.7371 39.7705 39.2843C42.0125 38.8316 44.0694 37.7227 45.6799 36.0985L46.1703 35.6059L46.1565 35.5922ZM33.6011 37.3465C32.3697 36.8352 31.2519 36.0847 30.3125 35.1385L30.2804 35.276C29.3365 34.3317 28.5881 33.2105 28.0781 31.9766C27.5682 30.7427 27.3067 29.4203 27.3086 28.0852C27.3105 26.75 27.5758 25.4284 28.0893 24.1959C28.6028 22.9635 29.3544 21.8445 30.3011 20.903C31.0357 20.1745 31.8761 19.5612 32.7939 19.0837L34.2328 20.5226C33.2743 20.9339 32.4015 21.5215 31.6598 22.2548C30.1474 23.7535 29.2745 25.7799 29.2244 27.9085C29.1743 30.0371 29.9508 32.1024 31.391 33.6706C32.8311 35.2389 34.8229 36.1882 36.9481 36.3192C39.0732 36.4502 41.1665 35.7527 42.7884 34.3732L44.1448 35.7296L44.0898 35.7777L43.9088 35.9312L43.8125 36.0114L43.7163 36.0871L43.6934 36.1031L43.6361 36.1489L43.5422 36.2222L43.4551 36.2864L43.4047 36.3231L43.3337 36.3735H43.3199L43.226 36.4399C43.1114 36.5201 43.006 36.5888 42.9029 36.6553L42.6738 36.7973L42.534 36.8798L42.4699 36.9165C42.2659 37.031 42.0552 37.141 41.8421 37.2418L41.739 37.2922H41.7183L41.6496 37.322L41.5213 37.3793L41.3792 37.4412L41.2349 37.4985L41.1478 37.5328C41.1112 37.5489 41.0722 37.5626 41.031 37.5764L40.9508 37.6084H40.9324L40.866 37.6336L40.6117 37.7184L40.5292 37.7436L40.4146 37.7803L40.339 37.8032H40.3253L40.2657 37.8215L40.1878 37.8422L40.0893 37.8696L39.9655 37.9017H39.9197L39.741 37.943L39.4706 38.0003L39.3675 38.0186H39.3561L39.2759 38.0323H39.2644L39.1636 38.0484C39.0445 38.069 38.9207 38.0873 38.7947 38.1033H38.6939H38.6435H38.5656H38.4487L38.3113 38.1171H38.2769H38.2081H38.0592H37.8736H37.743H37.4864C36.1531 38.1197 34.8325 37.8577 33.6011 37.3465ZM40.2061 34.4649L38.7672 33.026C39.7454 32.5873 40.6293 31.9633 41.3701 31.1884C42.8824 29.6896 43.7553 27.6632 43.8054 25.5346C43.8555 23.406 43.079 21.3408 41.6388 19.7725C40.1987 18.2043 38.2069 17.255 36.0818 17.124C33.9566 16.993 31.8633 17.6905 30.2415 19.07L28.885 17.7113L28.94 17.6631L29.121 17.5096L29.2264 17.4248L29.3227 17.347L29.3456 17.3309L29.4029 17.2851L29.4968 17.2141L29.5839 17.1499L29.632 17.1132L29.7053 17.0605L29.7236 17.0468L29.8107 16.9872C29.9253 16.9093 30.0307 16.8383 30.1338 16.7741L30.2277 16.7146L30.3744 16.6252L30.5073 16.5473L30.5691 16.5106C30.773 16.3961 30.9838 16.2861 31.1969 16.1853L31.3023 16.1349H31.3206L31.3894 16.1051L31.5177 16.0478L31.6598 15.9882L31.8041 15.9287L31.8912 15.8943L32.0103 15.8508L32.0882 15.821H32.1088L32.173 15.7981L32.4273 15.711L32.5098 15.6858L32.6244 15.6514L32.7 15.6285H32.7137L32.7733 15.6102L32.8512 15.5896L32.9497 15.5621L33.0735 15.53H33.1193L33.298 15.4865L33.5707 15.4292L33.6715 15.4108H33.6875L33.7631 15.3971H33.7746L33.8754 15.3788C33.9968 15.3581 34.1183 15.3421 34.2443 15.3261L34.3428 15.3123H34.3565H34.3955H34.4734L34.5903 15.3009H34.7277H34.7621H34.8308H34.9798H35.1654H35.2914H35.5457C37.8194 15.3023 40.0268 16.0671 41.8141 17.4727C43.6013 18.8783 44.8648 20.8433 45.4021 23.0526C45.9394 25.262 45.7193 27.5877 44.7771 29.6571C43.8349 31.7264 42.2253 33.4195 40.2061 34.4649Z" fill="white"/>
<path d="M58.0227 35.2196L60.9204 17.7651H66.8182C68.1818 17.7651 69.2614 17.9952 70.0568 18.4554C70.8579 18.9156 71.4006 19.5491 71.6847 20.356C71.9744 21.1628 72.0341 22.0832 71.8636 23.1173C71.6932 24.1401 71.3295 25.0491 70.7727 25.8446C70.2216 26.6401 69.4716 27.2651 68.5227 27.7196C67.5795 28.1741 66.4318 28.4014 65.0795 28.4014H60.3068L60.6477 26.4923H65.3523C66.2841 26.4923 67.0568 26.356 67.6704 26.0832C68.2841 25.8105 68.7614 25.4213 69.1023 24.9156C69.4432 24.4099 69.6704 23.8105 69.7841 23.1173C69.8977 22.4128 69.8665 21.802 69.6903 21.2849C69.5199 20.7622 69.1704 20.3588 68.642 20.0747C68.1193 19.7849 67.3864 19.6401 66.4432 19.6401H62.7273L60.1364 35.2196H58.0227ZM67.5341 27.3787L70.5341 35.2196H68.0795L65.1477 27.3787H67.5341ZM72.1416 35.2196L74.3234 22.1287H76.3347L74.1529 35.2196H72.1416ZM75.9427 19.9128C75.5506 19.9128 75.2126 19.7793 74.9285 19.5122C74.6501 19.2452 74.5109 18.9241 74.5109 18.5491C74.5109 18.1741 74.6501 17.8531 74.9285 17.5861C75.2126 17.319 75.5506 17.1855 75.9427 17.1855C76.3347 17.1855 76.67 17.319 76.9484 17.5861C77.2325 17.8531 77.3745 18.1741 77.3745 18.5491C77.3745 18.9241 77.2325 19.2452 76.9484 19.5122C76.67 19.7793 76.3347 19.9128 75.9427 19.9128ZM80.1837 27.3446L78.8882 35.2196H76.8769L79.0587 22.1287H81.0019L80.661 24.1741H80.8314C81.2405 23.5094 81.7945 22.9753 82.4933 22.5719C83.1922 22.1628 84.036 21.9582 85.0246 21.9582C85.8996 21.9582 86.6382 22.1401 87.2405 22.5037C87.8485 22.8616 88.2774 23.4071 88.5274 24.1401C88.7831 24.8673 88.82 25.7878 88.6382 26.9014L87.2405 35.2196H85.2291L86.5928 27.0378C86.7632 26.0151 86.6297 25.2139 86.1922 24.6344C85.7604 24.0548 85.0757 23.7651 84.1382 23.7651C83.4905 23.7651 82.8911 23.9043 82.3399 24.1827C81.7945 24.4611 81.3314 24.8673 80.9507 25.4014C80.5757 25.9355 80.32 26.5832 80.1837 27.3446ZM94.4218 40.4014C93.4446 40.4014 92.6264 40.2764 91.9673 40.0264C91.3082 39.7821 90.7798 39.4582 90.3821 39.0548C89.9843 38.6571 89.6832 38.231 89.4787 37.7764L91.2855 36.6514C91.4218 36.8901 91.598 37.1628 91.8139 37.4696C92.0298 37.7821 92.3565 38.052 92.794 38.2793C93.2372 38.5122 93.8593 38.6287 94.6605 38.6287C95.7116 38.6287 96.6321 38.373 97.4218 37.8617C98.2116 37.3503 98.7002 36.5491 98.8877 35.4582L99.2968 32.7991H99.1264C98.9446 33.0378 98.6917 33.3332 98.3679 33.6855C98.044 34.0321 97.6093 34.3418 97.0639 34.6145C96.5184 34.8815 95.8196 35.0151 94.9673 35.0151C93.9048 35.0151 92.9957 34.7651 92.24 34.2651C91.4843 33.7651 90.9417 33.0378 90.6122 32.0832C90.2883 31.1287 90.24 29.9696 90.4673 28.606C90.6889 27.2651 91.115 26.0974 91.7457 25.1031C92.3821 24.1031 93.1662 23.3304 94.098 22.7849C95.0298 22.2338 96.0468 21.9582 97.1491 21.9582C98.0014 21.9582 98.6548 22.1003 99.1093 22.3844C99.5696 22.6628 99.9048 22.981 100.115 23.3389C100.325 23.6912 100.484 23.981 100.592 24.2082H100.797L101.138 22.1287H103.081L100.865 35.5946C100.678 36.7196 100.271 37.6344 99.6463 38.3389C99.0213 39.0491 98.2542 39.569 97.3451 39.8986C96.436 40.2338 95.4616 40.4014 94.4218 40.4014ZM95.4787 33.2082C96.2798 33.2082 96.9929 33.0236 97.6179 32.6543C98.2485 32.2849 98.7713 31.7537 99.186 31.0605C99.6008 30.3673 99.8877 29.5378 100.047 28.5719C100.206 27.6287 100.195 26.7963 100.013 26.0747C99.8309 25.3531 99.4872 24.7878 98.9815 24.3787C98.4815 23.9696 97.8252 23.7651 97.0127 23.7651C96.1548 23.7651 95.4133 23.981 94.7883 24.4128C94.169 24.8446 93.6662 25.4241 93.2798 26.1514C92.8934 26.8787 92.6264 27.6855 92.4787 28.5719C92.3309 29.481 92.3366 30.2849 92.4957 30.9838C92.6548 31.677 92.9787 32.2224 93.4673 32.6202C93.9616 33.0122 94.6321 33.2082 95.4787 33.2082ZM106.28 30.4469L106.655 27.9582H107.064L113.78 22.1287H116.269L109.144 28.2991H108.973L106.28 30.4469ZM103.621 35.2196L106.519 17.7651H108.53L105.632 35.2196H103.621ZM111.939 35.2196L107.916 28.7423L109.553 27.3446L114.496 35.2196H111.939ZM124.852 29.8673L126.147 22.1287H128.159L125.977 35.2196H123.966L124.341 33.0037H124.204C123.795 33.6685 123.224 34.2338 122.491 34.6997C121.758 35.1599 120.897 35.3901 119.909 35.3901C119.091 35.3901 118.392 35.2111 117.812 34.8531C117.238 34.4895 116.829 33.944 116.585 33.2168C116.346 32.4838 116.318 31.5605 116.5 30.4469L117.897 22.1287H119.909L118.545 30.3105C118.392 31.2651 118.537 32.0264 118.98 32.5946C119.423 33.1628 120.062 33.4469 120.897 33.4469C121.397 33.4469 121.926 33.319 122.483 33.0634C123.045 32.8077 123.545 32.4156 123.983 31.8872C124.426 31.3588 124.716 30.6855 124.852 29.8673Z" fill="white"/>
</svg>
